<svg width="258" height="251" viewBox="0 0 258 251" fill="none" xmlns="http://www.w3.org/2000/svg">
<g clip-path="url(#clip0_3723_2705)">
<path d="M54.4187 36.15V54.5H49.2273L42.0313 46.15V54.5H35.8633V36.15H41.1061L48.2507 44.5V36.15H54.4187Z" fill="#E0E0E0"/>
<path d="M216.534 131.95C216.534 127.8 219.927 124.75 224.553 124.75C229.179 124.75 232.571 127.8 232.571 131.95C232.571 136.1 229.179 139.15 224.553 139.15C219.927 139.15 216.534 136.15 216.534 131.95ZM227.688 131.95C227.688 129.8 226.249 128.5 224.501 128.5C222.754 128.5 221.314 129.8 221.314 131.95C221.314 134.1 222.754 135.4 224.501 135.4C226.249 135.4 227.688 134.1 227.688 131.95Z" fill="#E0E0E0"/>
<path d="M44.3956 166.2C44.3956 169.4 41.877 171.4 37.9192 171.4H35.8632V174.8H31.083V161H37.9192C41.877 161 44.3956 163.05 44.3956 166.2ZM39.6154 166.2C39.6154 165.2 38.9986 164.6 37.6622 164.6H35.9146V167.85H37.6622C38.9472 167.85 39.6154 167.25 39.6154 166.2Z" fill="#E0E0E0"/>
<path d="M208.105 51.45C210.315 53.4 212.319 55.55 214.324 57.7C215.301 58.8 228.305 74.1 229.23 75.25L230.669 76.95C231.235 77.55 231.492 78.4 231.337 79.3C231.183 80.3 230.361 81.05 229.384 81.05C228.51 81.1 227.739 80.7 227.225 80L225.838 78.3C224.912 77.15 212.011 61.75 211.137 60.55C209.39 58.2 207.128 56.2 205.637 53.6C205.278 53.05 205.997 51.8 206.614 51.4C207.077 51.05 207.693 51.05 208.105 51.45Z" fill="#E0E0E0"/>
<path d="M206.511 24.35C212.576 30.4 213.964 39.6 209.955 47.1C208.927 49 207.642 50.7001 206.049 52.2001C198.03 59.75 185.18 59.55 177.419 51.75C169.657 43.9501 169.863 31.45 177.881 23.9C185.9 16.3 198.75 16.5 206.511 24.35Z" fill="#F0F0F0"/>
<path d="M175.671 21.95C166.676 30.45 166.471 44.4 175.209 53.15C183.947 61.9 198.287 62.1 207.282 53.6C216.226 45.15 216.483 31.2 207.796 22.45C199.058 13.65 184.718 13.4 175.671 21.95ZM205.226 51.6C197.413 59 184.872 58.8 177.316 51.15C169.76 43.5 169.914 31.35 177.779 24C185.591 16.65 198.082 16.8 205.689 24.4C213.245 32.05 213.09 44.2 205.226 51.6Z" fill="#E0E0E0"/>
<path d="M228.664 155.2H135.785C134.14 155.2 132.752 153.9 132.752 152.25V20.6C132.752 19 134.088 17.65 135.785 17.65H228.664C230.309 17.65 231.697 18.95 231.697 20.6V152.25C231.697 153.85 230.361 155.2 228.664 155.2ZM135.785 17.8C134.191 17.8 132.906 19.05 132.906 20.6V152.25C132.906 153.8 134.191 155.05 135.785 155.05H228.664C230.258 155.05 231.543 153.8 231.543 152.25V20.6C231.543 19.05 230.258 17.8 228.664 17.8H135.785Z" fill="#E0E0E0"/>
<path d="M121.547 155.2H28.6156C26.9708 155.2 25.583 153.9 25.583 152.25V20.6C25.583 19 26.9194 17.65 28.6156 17.65H121.495C123.14 17.65 124.528 18.95 124.528 20.6V152.25C124.579 153.85 123.192 155.2 121.547 155.2ZM28.6156 17.8C27.0222 17.8 25.7372 19.05 25.7372 20.6V152.25C25.7372 153.8 27.0222 155.05 28.6156 155.05H121.495C123.089 155.05 124.374 153.8 124.374 152.25V20.6C124.374 19.05 123.089 17.8 121.495 17.8C121.547 17.8 28.6156 17.8 28.6156 17.8Z" fill="#E0E0E0"/>
<path d="M257.5 185.7H0.5V185.8H257.5V185.7Z" fill="#E0E0E0"/>
<path d="M35.3491 192.85H27.0737V192.95H35.3491V192.85Z" fill="#E0E0E0"/>
<path d="M115.584 191.5H88.0854V191.6H115.584V191.5Z" fill="#E0E0E0"/>
<path d="M54.4188 197.5H35.812V197.6H54.4188V197.5Z" fill="#E0E0E0"/>
<path d="M217.202 191.4H194.998V191.5H217.202V191.4Z" fill="#E0E0E0"/>
<path d="M225.015 191.4H221.777V191.5H225.015V191.4Z" fill="#E0E0E0"/>
<path d="M190.731 194.55H163.027V194.65H190.731V194.55Z" fill="#E0E0E0"/>
<path d="M30.4148 110C29.027 112.05 28.1018 114.3 27.5878 116.6L23.7842 116.95V124.1L27.5878 124.45C28.1018 126.75 29.027 129 30.4148 131.05L27.999 133.9L33.1904 138.95L36.1202 136.6C38.2276 137.95 40.5406 138.85 42.905 139.35L43.2648 143.05H50.615L50.9748 139.35C53.3392 138.85 55.6522 137.95 57.7596 136.6L60.6894 138.95L65.8808 133.9L63.465 131.05C64.8528 129 65.778 126.75 66.292 124.45L70.0956 124.1V116.95L66.292 116.6C65.778 114.3 64.8528 112.05 63.465 110L65.8808 107.15L60.6894 102.1L57.7596 104.45C55.6522 103.1 53.3392 102.2 50.9748 101.7L50.615 98H43.2648L42.905 101.7C40.5406 102.2 38.2276 103.1 36.1202 104.45L33.1904 102.1L27.999 107.15L30.4148 110ZM53.956 113.7C57.8624 117.5 57.8624 123.6 53.956 127.4C50.0496 131.2 43.7788 131.2 39.8724 127.4C35.966 123.6 35.966 117.5 39.8724 113.7C43.7788 109.9 50.101 109.9 53.956 113.7Z" fill="#E0E0E0"/>
<path d="M199.058 179.85C198.287 181 197.773 182.25 197.516 183.5L195.409 183.7V187.65L197.516 187.85C197.773 189.15 198.287 190.4 199.058 191.5L197.722 193.1L200.6 195.9L202.245 194.6C203.427 195.35 204.712 195.85 205.997 196.1L206.203 198.15H210.263L210.469 196.1C211.805 195.85 213.09 195.35 214.221 194.6L215.866 195.9L218.744 193.1L217.408 191.5C218.179 190.35 218.693 189.1 218.95 187.85L221.057 187.65V183.7L218.95 183.5C218.693 182.2 218.179 180.95 217.408 179.85L218.744 178.25L215.866 175.45L214.221 176.75C213.039 176 211.754 175.5 210.469 175.25L210.263 173.2H206.203L205.997 175.25C204.661 175.5 203.376 176 202.245 176.75L200.6 175.45L197.722 178.25L199.058 179.85ZM212.114 181.9C214.272 184 214.272 187.4 212.114 189.5C209.955 191.6 206.46 191.6 204.301 189.5C202.142 187.4 202.142 184 204.301 181.9C206.46 179.8 209.955 179.8 212.114 181.9Z" fill="#E0E0E0"/>
<path d="M132.907 230.95C188.745 230.95 234.01 229.652 234.01 228.05C234.01 226.448 188.745 225.15 132.907 225.15C77.0685 225.15 31.8027 226.448 31.8027 228.05C31.8027 229.652 77.0685 230.95 132.907 230.95Z" fill="#F5F5F5"/>
<path d="M217.254 59.55C222.188 57.55 227.893 59.8 229.949 64.55C232.005 69.3 229.692 74.75 224.758 76.75C220.954 78.3 216.688 77.3 213.964 74.6L211.034 74.7L212.062 71.9C212.062 71.85 212.011 71.8 212.011 71.75C209.955 67 212.319 61.5 217.254 59.55Z" fill="#EF5350"/>
<path d="M227.071 59.5C227.02 59.5 227.02 59.5 226.968 59.45C224.501 57.65 221.057 57.1 218.127 58.1C218.076 58.1 217.973 58.1 217.973 58C217.973 57.95 217.973 57.85 218.076 57.85C221.057 56.8 224.655 57.35 227.174 59.25C227.225 59.3 227.225 59.35 227.174 59.45C227.122 59.45 227.122 59.5 227.071 59.5Z" fill="#EF5350"/>
<path d="M215.454 59.25C215.403 59.25 215.403 59.25 215.352 59.2C215.3 59.15 215.3 59.05 215.352 59C215.763 58.7 216.174 58.45 216.688 58.35C216.739 58.35 216.842 58.35 216.842 58.45C216.842 58.5 216.842 58.6 216.739 58.6C216.277 58.7 215.866 58.95 215.506 59.2C215.506 59.25 215.506 59.25 215.454 59.25Z" fill="#EF5350"/>
<path d="M220.698 72.6C220.338 72.6 220.029 72.5 219.772 72.25C219.515 72 219.413 71.75 219.413 71.4C219.413 71.05 219.515 70.8 219.772 70.6C220.029 70.4 220.338 70.25 220.698 70.25C221.057 70.25 221.366 70.35 221.623 70.6C221.88 70.8 221.983 71.1 221.983 71.4C221.983 71.7 221.88 72 221.623 72.25C221.366 72.45 221.057 72.6 220.698 72.6ZM221.52 69.35H219.875L219.464 63.5H221.931L221.52 69.35Z" fill="white"/>
<path d="M28.5644 82.1C23.8356 78.55 22.9104 72 26.457 67.45C30.0036 62.9 36.6856 62.05 41.4144 65.55C45.0638 68.3 46.4516 72.8 45.2694 76.85L46.9656 79.55L43.6246 80.1C43.5732 80.15 43.5732 80.2 43.5218 80.25C39.9752 84.8 33.2932 85.65 28.5644 82.1Z" fill="#EF5350"/>
<path d="M42.2883 63.85C42.2369 63.85 42.2369 63.85 42.1855 63.8C39.4613 61.75 35.6063 61.2 32.3681 62.3C32.3167 62.3 32.2139 62.3 32.2139 62.2C32.2139 62.15 32.2139 62.05 32.3167 62.05C35.6577 60.9 39.6155 61.5 42.3911 63.6C42.4425 63.65 42.4425 63.7 42.3911 63.8C42.3397 63.8 42.2883 63.85 42.2883 63.85Z" fill="#EF5350"/>
<path d="M29.387 63.6C29.3356 63.6 29.3356 63.6 29.2842 63.55C29.2328 63.5 29.2328 63.4 29.2842 63.35C29.6954 63 30.2094 62.75 30.7234 62.65C30.7748 62.65 30.8776 62.65 30.8776 62.75C30.8776 62.85 30.8776 62.9 30.7748 62.9C30.2608 63.05 29.7982 63.25 29.387 63.6C29.4384 63.6 29.4384 63.6 29.387 63.6Z" fill="#EF5350"/>
<path d="M37.6657 70.0776L31.5234 76.0526L33.0863 77.5728L39.2286 71.5978L37.6657 70.0776Z" fill="white"/>
<path d="M32.9566 70.1585L31.4497 71.7314L37.8048 77.4927L39.3117 75.9197L32.9566 70.1585Z" fill="white"/>
<path d="M67.8341 38.45H185.232C187.133 38.45 188.727 39.95 188.727 41.85V199.25C188.727 201.1 187.185 202.65 185.232 202.65H67.8341C65.9323 202.65 64.3389 201.15 64.3389 199.25V41.85C64.3903 39.95 65.9323 38.45 67.8341 38.45Z" fill="#407BFF"/>
<path d="M74.1046 42.95H68.6562V198.45L183.638 199.3L186.773 195.75L183.998 49.05L74.1046 42.95Z" fill="#EBEBEB"/>
<path d="M186.773 195.75H73.0766V42.95H68.6562V199.3H183.638L186.773 195.75Z" fill="#E0E0E0"/>
<path opacity="0.2" d="M68.6562 199.3L73.0766 195.75H186.773L183.638 199.3H68.6562Z" fill="black"/>
<path d="M196.59 190.75H84.2301C73.2819 166.15 71.3287 103.65 73.0763 42.95H184.614C183.74 103.6 185.951 158.05 196.59 190.75Z" fill="white"/>
<path d="M196.95 191H84.0761L84.0246 190.85C71.4316 162.6 71.6372 86.05 72.8708 42.95V42.7H184.923V42.95C183.843 115.45 187.647 162.35 196.848 190.65L196.95 191ZM84.4358 190.5H196.282C187.133 162.15 183.329 115.3 184.409 43.2H73.3848C72.1512 86.2 71.9456 162.25 84.4358 190.5Z" fill="#263238"/>
<path d="M88.3937 77.3H173.255C173.975 77.3 173.975 76.55 173.255 76.55H88.3937C87.6741 76.55 87.6741 77.3 88.3937 77.3Z" fill="#263238"/>
<path d="M88.2395 92.95H173.461C173.975 92.95 173.975 92.2 173.461 92.2H88.2395C87.7255 92.2 87.7255 92.95 88.2395 92.95Z" fill="#263238"/>
<path d="M88.2395 106.6H129.617C130.131 106.6 130.131 105.85 129.617 105.85H88.2395C87.7255 105.85 87.7255 106.6 88.2395 106.6Z" fill="#263238"/>
<path d="M89.8845 120.3H147.555C148.069 120.3 148.069 119.55 147.555 119.55H89.8845C89.3705 119.55 89.3705 120.3 89.8845 120.3Z" fill="#263238"/>
<path d="M91.5291 133.95H120.93C121.444 133.95 121.444 133.2 120.93 133.2H91.5291C91.0665 133.2 91.0665 133.95 91.5291 133.95Z" fill="#263238"/>
<path d="M126.019 133.95H174.438C174.952 133.95 174.952 133.2 174.438 133.2H126.019C125.556 133.2 125.556 133.95 126.019 133.95Z" fill="#263238"/>
<path d="M93.1741 147.6H128.229C128.743 147.6 128.743 146.85 128.229 146.85H93.1741C92.7115 146.85 92.7115 147.6 93.1741 147.6Z" fill="#407BFF"/>
<path d="M94.8186 161.3H150.382C150.896 161.3 150.896 160.55 150.382 160.55H94.8186C94.356 160.55 94.356 161.3 94.8186 161.3Z" fill="#263238"/>
<path d="M97.697 176.45H135.27C135.784 176.45 135.784 175.7 135.27 175.7H97.697C97.183 175.7 97.183 176.45 97.697 176.45Z" fill="#263238"/>
<path d="M146.424 67.2C142.981 66.6 139.434 66.7 136.042 67.5C133.009 68.2 129.771 69.4 127.561 71.65C125.607 73.65 124.579 76.85 126.019 79.4C127.355 81.75 130.233 82.65 132.803 83C136.299 83.45 139.897 83.35 143.392 82.65C146.373 82.1 149.92 81.25 152.078 79.05C153.877 77.2 154.391 74.5 153.929 72.1C153.466 69.55 151.873 67.65 149.611 66.35C146.836 64.75 143.495 64.35 140.359 64.65C136.401 65.05 132.546 66.2 129 67.9C128.537 68.1 128.948 68.75 129.411 68.55C132.341 67.15 135.476 66.15 138.663 65.65C141.49 65.2 144.42 65.15 147.195 66.05C149.354 66.8 151.462 68.15 152.541 70.15C153.62 72.25 153.723 74.9 152.695 77.05C151.41 79.55 148.583 80.6 146.013 81.35C142.826 82.2 139.537 82.6 136.299 82.55C133.677 82.5 130.593 82.25 128.332 80.7C125.916 79 125.813 75.85 127.252 73.45C129 70.7 132.444 69.3 135.476 68.45C139.023 67.5 142.724 67.3 146.373 67.95C146.681 68 146.887 67.3 146.424 67.2Z" fill="#407BFF"/>
<path d="M137.018 167.85C131.518 167.05 125.762 167.9 120.827 170.45C118.823 171.5 116.612 173.6 117.743 176.05C118.874 178.4 122.009 178.8 124.271 179.3C130.131 180.6 136.196 181.7 142.21 180.8C144.625 180.45 147.452 179.85 149.354 178.25C151.153 176.7 150.948 174.45 149.406 172.85C147.504 170.85 144.42 169.9 141.747 169.5C138.766 169.05 135.682 169.15 132.701 169.25C132.187 169.25 132.187 170 132.701 170C137.378 169.8 142.415 169.6 146.681 171.8C148.429 172.7 150.948 174.75 149.56 176.9C148.378 178.75 145.551 179.4 143.495 179.8C138.252 180.95 132.803 180.3 127.612 179.3C126.276 179.05 124.939 178.75 123.603 178.45C122.369 178.15 120.981 177.95 119.851 177.3C118.874 176.75 118.052 175.8 118.154 174.65C118.257 173.35 119.234 172.35 120.313 171.65C122.626 170.2 125.402 169.35 128.075 168.85C130.902 168.3 133.831 168.25 136.71 168.7C137.327 168.65 137.532 167.9 137.018 167.85Z" fill="#407BFF"/>
<path d="M179.629 173.1C180.143 173.1 180.143 172.35 179.629 172.35H158.812C158.298 172.35 158.298 173.1 158.812 173.1" fill="#407BFF"/>
<path d="M112.912 35.95H145.551C147.71 35.95 149.457 37.65 149.457 39.75V48.35H109.005V39.75C109.005 37.65 110.753 35.95 112.912 35.95Z" fill="#263238"/>
<path d="M121.907 37.3L120.005 31.4H139.691L137.481 37.55L121.907 37.3Z" fill="#263238"/>
<path d="M106.59 35.95H78.0112V36.35H106.59V35.95Z" fill="#407BFF"/>
<path d="M100.422 98.3501C104.842 95.0001 109.006 91.3001 113.477 87.9501C113.889 87.6501 113.323 87.1501 112.912 87.4001C108.492 90.7501 104.328 94.4501 99.8564 97.8001C99.4452 98.1001 100.011 98.6501 100.422 98.3501Z" fill="#407BFF"/>
<path d="M99.2908 88.0501C99.188 88.0501 99.2394 88.0501 99.3422 88.1001C99.4964 88.2001 99.5992 88.3001 99.7534 88.4001C100.165 88.7001 100.524 89.0001 100.884 89.3001C102.015 90.2501 103.146 91.2501 104.277 92.2501C106.641 94.3501 109.005 96.5001 111.318 98.7001C111.832 99.2001 112.398 99.7001 112.912 100.2C113.272 100.55 113.837 100 113.477 99.6501C109.571 95.9501 105.613 92.2501 101.45 88.7501C101.038 88.4001 100.576 88.0501 100.113 87.7001C99.8562 87.5501 99.5992 87.3001 99.2908 87.3001C98.7768 87.2501 98.7768 88.0001 99.2908 88.0501Z" fill="#407BFF"/>
<path d="M134.14 147.6H176.802C177.316 147.6 177.316 146.85 176.802 146.85H134.14C133.626 146.85 133.626 147.6 134.14 147.6Z" fill="#263238"/>
<path d="M157.167 161.3H179.629C180.143 161.3 180.143 160.55 179.629 160.55H157.167C156.653 160.55 156.653 161.3 157.167 161.3Z" fill="#263238"/>
<path d="M155.214 120.3H174.438C174.952 120.3 174.952 119.55 174.438 119.55H155.214C154.752 119.55 154.752 120.3 155.214 120.3Z" fill="#263238"/>
<path d="M134.551 106.6H151.256C151.77 106.6 151.77 105.85 151.256 105.85H134.551C134.088 105.85 134.088 106.6 134.551 106.6Z" fill="#407BFF"/>
<path d="M157.167 106.55H174.438C174.952 106.55 174.952 105.8 174.438 105.8H157.167C156.653 105.8 156.653 106.55 157.167 106.55Z" fill="#263238"/>
<path d="M176.134 127.45C178.036 129.1 179.115 131.6 178.961 134.1C178.807 136.55 177.419 138.85 175.311 140.25C174.9 140.5 175.311 141.15 175.723 140.9C177.984 139.4 179.475 136.95 179.732 134.3C179.989 131.55 178.807 128.75 176.699 126.95C176.339 126.6 175.774 127.15 176.134 127.45Z" fill="#407BFF"/>
<path d="M180.092 138.9C179.372 139.2 178.601 139.5 177.882 139.8L176.802 140.25C176.494 140.35 176.185 140.55 175.877 140.55C175.62 140.55 175.569 140.4 175.62 140.15C175.671 139.8 175.774 139.45 175.826 139.15C175.98 138.4 176.134 137.6 176.288 136.85C176.391 136.4 175.62 136.2 175.569 136.65C175.363 137.55 175.209 138.45 175.003 139.4C174.849 140.05 174.643 141.05 175.569 141.3C175.928 141.4 176.288 141.3 176.597 141.2C177.008 141.05 177.419 140.85 177.83 140.7C178.704 140.35 179.629 139.95 180.503 139.6C180.709 139.5 180.76 139.25 180.657 139.1C180.503 138.85 180.297 138.85 180.092 138.9Z" fill="#407BFF"/>
<path d="M76.3667 35.95H71.9463V36.35H76.3667V35.95Z" fill="#407BFF"/>
<path d="M226.969 178.7C224.09 175.4 224.193 170.75 227.123 168.35C230.053 165.95 234.73 166.7 237.609 170C240.487 173.3 240.384 177.95 237.454 180.35C234.525 182.75 229.847 182.05 226.969 178.7Z" fill="#407BFF"/>
<path d="M148.738 87.95L144.523 73.3L159.326 79.3L237.197 169.65L226.609 178.3L148.738 87.95Z" fill="#407BFF"/>
<path d="M148.43 74.85C148.121 76.3 147.196 77.1 145.603 77.15L148.687 87.9C148.687 87.9 151.616 89.5 151.462 85.9C151.462 85.9 154.649 86.95 154.495 83.45C154.495 83.45 157.27 84.1 157.116 81.3C157.116 81.3 159.429 81.75 159.326 79.25L148.43 74.85Z" fill="#EF8274"/>
<path opacity="0.3" d="M154.546 83.45L232.982 173.3L235.449 171.3C235.758 170.85 157.167 81.35 157.167 81.35C157.321 84.1 154.546 83.45 154.546 83.45Z" fill="white"/>
<path opacity="0.3" d="M151.513 85.9501C151.616 87.9001 150.742 88.3001 149.971 88.3001L227.894 177.5L230.361 175.5C230.618 175.1 159.429 93.9001 152.593 86.1001C152.027 86.1501 151.513 85.9501 151.513 85.9501Z" fill="white"/>
<path d="M237.006 168.757L225.779 177.911L227.298 179.674L238.525 170.52L237.006 168.757Z" fill="#263238"/>
<path d="M208.207 213.2V222.65L203.324 223L201.577 214.1C203.838 212.7 206.048 212.35 208.207 213.2Z" fill="#FFB463"/>
<path d="M208.053 221.65C208.516 222.9 208.567 228 208.567 228H198.184C197.568 226.15 198.544 224.9 199.726 224.7C200.24 224.65 200.857 224.1 201.32 223.65C201.32 223.6 201.937 220.75 202.348 220.6C202.348 220.6 202.605 220.3 202.862 220.6C203.067 220.9 203.273 221.85 203.273 221.85C204.866 219.95 206.46 220.2 208.053 221.65Z" fill="#263238"/>
<path d="M208.156 223.1C206.973 222.7 205.74 222.85 204.712 223.55C204.558 223.65 204.352 223.4 204.558 223.25C205.637 222.5 207.025 222.35 208.259 222.8C208.464 222.9 208.361 223.2 208.156 223.1Z" fill="white"/>
<path d="M198.184 227.25H208.413C208.516 227.25 208.567 227.2 208.567 227.1C208.567 227 208.516 226.95 208.413 226.95H198.184C198.082 226.95 198.03 227 198.03 227.1C198.03 227.2 198.133 227.25 198.184 227.25Z" fill="white"/>
<path d="M186.877 212V222.7L182.148 223.05L179.835 213.05C181.737 211.65 183.947 211 186.877 212Z" fill="#FFB463"/>
<path d="M187.082 221.65C187.545 222.9 187.596 228 187.596 228H175.671C175.055 226.15 176.34 225.05 177.573 224.9C178.087 224.85 179.938 224.15 180.349 223.7C180.349 223.65 180.966 220.8 181.377 220.65C181.377 220.65 181.634 220.35 181.891 220.65C182.096 220.95 182.302 221.9 182.302 221.9C183.947 219.95 185.489 220.25 187.082 221.65Z" fill="#263238"/>
<path d="M187.031 223.15C185.848 222.75 184.615 222.9 183.587 223.6C183.433 223.7 183.227 223.45 183.433 223.3C184.512 222.55 185.9 222.4 187.134 222.85C187.339 222.9 187.236 223.2 187.031 223.15Z" fill="white"/>
<path d="M175.671 227.3H187.493C187.596 227.3 187.647 227.25 187.647 227.15C187.647 227.05 187.596 227 187.493 227H175.671C175.568 227 175.517 227.05 175.517 227.15C175.517 227.2 175.568 227.3 175.671 227.3Z" fill="white"/>
<path d="M209.133 218.5L199.47 219.05C197.311 211.45 195.152 184.2 194.947 176C194.69 166.2 191.452 141.65 194.33 136.55C197.208 131.45 210.11 135.5 210.11 135.5C210.11 135.5 208.516 165.4 209.133 174.9C209.698 183.2 210.572 207.45 209.133 218.5Z" fill="#263238"/>
<path d="M189.909 218.5L180.349 219.05C179.167 210.65 174.489 180 174.901 174.1C175.363 166.95 180.914 135.9 182.97 133.5C185.026 131.1 200.087 137.3 200.087 137.3C200.087 137.3 193.919 164 189.036 175.55C187.956 177.95 190.68 208.25 189.909 218.5Z" fill="#263238"/>
<g opacity="0.3">
<path d="M196.386 155.15C196.592 154.7 196.746 154.3 196.9 153.85C197.825 151.5 198.493 149 199.059 146.5C200.652 146.3 202.194 145.95 203.685 145.4C203.89 145.35 203.788 144.95 203.582 145.05C201.166 145.95 198.699 146.35 196.18 146.3C195.975 146.3 195.975 146.65 196.18 146.65C197.003 146.7 197.877 146.65 198.699 146.55C198.134 149.05 197.465 151.5 196.54 153.85C195.615 156.2 194.536 158.45 193.353 160.65C193.251 160.85 193.508 161.05 193.61 160.85C194.433 159.2 195.255 157.55 196.026 155.9C196.078 157.9 196.283 164.15 196.54 172.45C196.951 186.75 200.035 210 200.909 216.25H201.218C200.344 210.1 197.26 186.75 196.849 172.45C196.643 162.6 196.437 155.65 196.386 155.15Z" fill="white"/>
<path d="M207.848 174.65C205.073 174.45 202.297 174.55 199.521 174.9C199.316 174.95 199.316 175.3 199.521 175.25C202.297 174.9 205.073 174.8 207.848 175C208.054 175.05 208.054 174.7 207.848 174.65Z" fill="white"/>
<path d="M176.597 174.7C176.802 170.2 181.583 151.15 181.634 150.95C181.634 150.85 181.634 150.75 181.531 150.7C181.428 150.65 181.377 150.75 181.326 150.8C181.12 151.6 176.494 170.1 176.288 174.6C176.083 178.5 181.069 214.5 181.274 216.05C181.274 216.15 181.377 216.2 181.428 216.2C181.531 216.2 181.583 216.1 181.583 216C181.531 215.7 176.391 178.55 176.597 174.7Z" fill="white"/>
<path d="M179.321 149C182.919 147.4 184.05 142.8 184.923 138.85C184.975 138.6 184.666 138.5 184.615 138.75C183.793 142.55 182.713 147.1 179.218 148.65C179.012 148.75 179.115 149.1 179.321 149Z" fill="white"/>
<path d="M187.339 175.05C185.026 174.9 182.662 174.7 180.349 174.55C180.143 174.55 180.143 174.9 180.349 174.9C182.662 175.05 185.026 175.25 187.339 175.4C187.545 175.4 187.545 175.05 187.339 175.05Z" fill="white"/>
</g>
<path d="M190.886 75.8C190.629 75.75 190.423 76 190.32 76.35C190.269 76.7 190.372 77 190.629 77.05C190.886 77.1 191.091 76.85 191.194 76.5C191.246 76.2 191.091 75.85 190.886 75.8Z" fill="#263238"/>
<path d="M190.218 80.4C189.601 80.45 188.984 80.2 188.573 79.75C189.447 79 190.218 78.1 190.886 77.15L190.218 80.4Z" fill="#F98412"/>
<path d="M192.685 74.8C192.325 74.4 191.811 74.2 191.246 74.25C191.143 74.25 191.04 74.2 190.989 74.1C190.989 74 191.04 73.9 191.143 73.85C191.811 73.75 192.531 74.05 192.993 74.55C193.096 74.65 193.096 74.75 192.993 74.85C192.942 74.9 192.891 74.9 192.839 74.9C192.788 74.9 192.736 74.85 192.685 74.8Z" fill="#263238"/>
<path d="M195.049 86.6C195.666 89.1 195.769 91.75 192.119 92.6C192.119 92.6 188.624 95.85 195.306 95.85C201.423 95.85 202.296 92.6 202.296 92.6C199.983 90.45 200.652 84.6 201.268 81.4L195.049 86.6Z" fill="#FFB463"/>
<path d="M203.325 75.4C202.656 72.2 199.47 70.1 196.18 70.75C191.554 71.6 189.652 77.8 189.806 81.8C189.961 86.25 194.946 89.25 198.956 86.65C201.628 84.9 202.091 82.4 203.222 78.2C203.427 77.25 203.479 76.3 203.325 75.4Z" fill="#FFB463"/>
<path d="M206.049 74.9C206.974 74.4 207.025 72.2 205.997 70.9C206.1 71.65 206.049 72.3 205.894 72.75C205.535 71.5 204.301 70.15 203.016 69.9C199.932 69.3 197.619 66.65 196.642 65.2C196.18 66.75 197.516 68.25 197.516 68.25C196.591 68.25 193.918 67.05 193.456 65.95C193.147 67.1 193.301 68.3 193.867 69.35C192.633 69.1 191.348 69.35 190.372 70.1C191.194 70.05 191.965 70.35 192.53 70.95C191.862 71.1 191.194 71.1 190.526 70.95C191.297 72.15 192.479 73 194.175 73.35C192.633 74.35 193.507 76.75 193.867 78.1C192.171 80.35 194.638 82.05 195.255 83.85C195.717 85.3 199.367 86.15 201.063 85.4C201.937 85 202.039 84.05 203.427 82.55C204.507 81.35 206.46 78.95 206.049 76.15C206.306 76.45 206.614 76.85 206.871 77.4C206.922 76.4 206.511 75.25 206.049 74.9Z" fill="#263238"/>
<path d="M194.124 75.95C192.839 76.3 192.119 78.15 192.068 79.3C191.965 80.55 192.839 81.4 194.021 80.55C194.895 79.9 195.563 79 195.871 77.95C196.18 76.7 195.409 75.55 194.124 75.95Z" fill="#FFB463"/>
<path d="M192.119 92.45C192.119 92.45 193.713 91.8 192.993 90.6C195.306 89.95 200.857 90 202.091 90.35C203.222 90.65 204.198 91.85 203.684 92.75L192.119 92.45Z" fill="#263238"/>
<path opacity="0.8" d="M192.119 92.45C192.119 92.45 193.713 91.8 192.993 90.6C195.306 89.95 200.857 90 202.091 90.35C203.222 90.65 204.198 91.85 203.684 92.75L192.119 92.45Z" fill="white"/>
<path d="M211.034 109.25C211.034 109.25 214.632 115.4 214.53 115.65L203.993 122.7L205.072 126C205.072 126 219.053 121.45 220.338 117.05C221.623 112.65 216.02 104.6 216.02 104.6L211.034 109.25Z" fill="#FFB463"/>
<path d="M206.357 122.4C206.357 122.4 205.586 121.15 204.352 120.85C203.119 120.55 202.245 120.05 201.32 119.9C200.395 119.75 201.217 120.7 201.731 121.1C202.245 121.5 202.862 122 202.502 122.3C202.142 122.65 197.773 123.6 197.311 124.1C196.848 124.65 197.568 124.7 197.568 124.7C197.568 124.7 196.54 124.95 196.488 125.4C196.488 125.5 196.642 125.8 197.156 125.75C198.287 125.65 200.6 125.35 200.6 125.35C200.446 125.35 197.619 125.95 197.208 126.1C196.642 126.3 196.488 126.65 196.642 126.95C196.797 127.4 200.395 126.75 200.549 126.85C200.549 126.85 198.493 127.15 198.287 127.7C198.082 128.25 199.367 128.15 200.497 127.85C201.525 127.55 203.633 127.25 204.661 126.85C205.946 126.35 206.665 125.75 206.717 124.5C206.82 123.25 206.357 122.4 206.357 122.4Z" fill="#FFB463"/>
<path opacity="0.3" d="M197.671 124.75C197.619 124.75 197.619 124.75 197.619 124.7C197.619 124.65 197.619 124.65 197.671 124.65C198.493 124.45 199.367 124.3 200.241 124.2C200.292 124.2 200.292 124.2 200.292 124.25C200.292 124.3 200.292 124.3 200.241 124.3C199.418 124.4 198.544 124.55 197.671 124.75C197.722 124.75 197.722 124.75 197.671 124.75Z" fill="black"/>
<path opacity="0.3" d="M201.371 126.8C201.371 126.8 201.32 126.8 201.32 126.75C200.806 125.8 200.549 124.65 200.703 123.55C200.703 123.5 200.755 123.5 200.755 123.5C200.806 123.5 200.806 123.55 200.806 123.55C200.703 124.6 200.909 125.75 201.423 126.7C201.423 126.75 201.423 126.8 201.371 126.8Z" fill="black"/>
<path opacity="0.3" d="M204.764 124C204.404 124 204.044 123.9 203.736 123.75C203.325 123.55 203.016 123.15 202.811 122.75C202.811 122.7 202.811 122.7 202.862 122.65C202.913 122.65 202.913 122.65 202.965 122.7C203.119 123.1 203.427 123.45 203.839 123.65C204.198 123.85 204.712 123.95 205.124 123.85C205.175 123.85 205.175 123.85 205.175 123.9C205.175 123.95 205.175 123.95 205.124 123.95C205.021 124 204.867 124 204.764 124Z" fill="black"/>
<path d="M205.124 103.15C205.895 106.2 207.437 108.95 209.596 111.25L218.077 105C218.077 105 212.731 93.85 208.516 92.9C204.147 91.9 203.633 97.65 205.124 103.15Z" fill="#263238"/>
<path opacity="0.8" d="M205.124 103.15C205.895 106.2 207.437 108.95 209.596 111.25L218.077 105C218.077 105 212.731 93.85 208.516 92.9C204.147 91.9 203.633 97.65 205.124 103.15Z" fill="white"/>
<path d="M207.899 92.7C212.165 93.75 211.549 99.8 211.549 105.7C211.549 114.7 211.651 129.85 211.24 138.5C211.24 139.15 209.492 139.8 208.927 139.95C203.787 140.65 189.446 140.8 184.718 139.8C184.152 139.65 179.989 138.85 179.938 138.25C186.208 128.25 182.302 101.55 182.662 98.3C183.021 94.95 184.152 93.95 185.334 93.4C189.858 91.25 204.764 91.9 207.899 92.7Z" fill="#263238"/>
<path opacity="0.8" d="M207.899 92.7C212.165 93.75 211.549 99.8 211.549 105.7C211.549 114.7 211.651 129.85 211.24 138.5C211.24 139.15 209.492 139.8 208.927 139.95C203.787 140.65 189.446 140.8 184.718 139.8C184.152 139.65 179.989 138.85 179.938 138.25C186.208 128.25 182.302 101.55 182.662 98.3C183.021 94.95 184.152 93.95 185.334 93.4C189.858 91.25 204.764 91.9 207.899 92.7Z" fill="white"/>
<path d="M183.227 99.8C183.022 100.8 182.765 101.95 182.508 103.05C182.251 104.15 181.994 105.2 181.685 106.3C181.12 108.4 180.452 110.45 179.681 112.5C179.321 113.4 178.91 114.25 178.396 115.1C178.241 115.4 178.036 115.65 177.779 115.95L177.625 116.1L177.47 116.25C177.368 116.35 177.368 116.4 177.213 116.5C176.956 116.55 176.699 116.55 176.442 116.45C176.031 116.3 175.671 116.1 175.312 115.85C175.106 115.75 174.9 115.55 174.695 115.45C174.643 115.4 174.541 115.35 174.489 115.3C174.027 112.8 170.891 111.8 170.891 111.8L168.167 110.55L168.218 115.1L169.092 116.2L171.508 117.35C171.559 117.45 171.559 117.5 171.611 117.6C171.765 117.9 171.919 118.25 172.125 118.55C172.536 119.2 172.999 119.8 173.615 120.35C174.335 121 175.157 121.45 176.083 121.75C177.162 122.05 178.293 122.1 179.321 121.85C179.578 121.8 179.835 121.7 180.092 121.6C180.349 121.5 180.554 121.4 180.811 121.3C181.274 121.05 181.685 120.75 182.096 120.45C182.713 119.9 183.279 119.3 183.793 118.65C184.615 117.55 185.283 116.35 185.9 115.1C186.928 112.85 187.802 110.5 188.521 108.1C188.881 106.95 189.138 105.8 189.447 104.6C189.704 103.4 189.961 102.3 190.166 101.05L183.227 99.8Z" fill="#FFB463"/>
<path d="M181.685 97.35C180.143 100.9 179.064 104.6 178.396 108.4L188.059 113.3C188.059 113.3 196.745 105.25 193.096 98.1C190.989 93.95 184.512 91.25 181.685 97.35Z" fill="#263238"/>
<path opacity="0.8" d="M181.685 97.35C180.143 100.9 179.064 104.6 178.396 108.4L188.059 113.3C188.059 113.3 196.745 105.25 193.096 98.1C190.989 93.95 184.512 91.25 181.685 97.35Z" fill="white"/>
<path d="M62.231 212.35L60.7404 223.45H57.2966L56.4229 212.55L62.231 212.35Z" fill="#EF8274"/>
<path d="M62.1797 221.1H60.6377C60.2779 221.1 59.9695 221.25 59.7639 221.55C58.8901 222.75 58.2219 222.3 57.2453 221.15C56.6285 221.1 56.4743 221.75 56.4229 221.95L55.2921 226.05C55.1893 226.4 55.3949 226.75 55.7547 226.85C55.8061 226.85 55.8575 226.9 55.9603 226.85H68.1935C70.1467 226.85 70.5579 224.95 69.7355 224.75C66.1375 223.95 63.5675 222.95 62.4367 221.9C62.2311 221.75 62.4367 221.65 62.1797 221.1Z" fill="#263238"/>
<path d="M65.3663 222.25C65.5205 222.15 65.6233 221.95 65.6233 221.75C65.6233 221.65 65.5719 221.55 65.5205 221.5C65.0579 221.15 63.1047 222.05 62.8991 222.15L62.8477 222.2C62.8477 222.25 62.8477 222.3 62.8991 222.3C63.3617 222.4 63.8757 222.45 64.3383 222.5C64.6981 222.5 65.0579 222.4 65.3663 222.25ZM65.3663 221.6C65.4177 221.6 65.4177 221.65 65.4177 221.7C65.4177 221.85 65.3149 221.95 65.2121 222.05C64.7495 222.35 63.7215 222.25 63.1561 222.15C63.9785 221.8 65.1093 221.45 65.3663 221.6Z" fill="#407BFF"/>
<path d="M62.8992 222.3C63.4646 222.05 64.6982 221.15 64.6468 220.65C64.6468 220.55 64.544 220.4 64.287 220.4C63.2076 220.3 62.7964 222.15 62.7964 222.2C62.7964 222.25 62.7964 222.25 62.7964 222.3C62.8478 222.3 62.8478 222.3 62.8992 222.3ZM64.287 220.55C64.4926 220.55 64.4926 220.65 64.4926 220.65C64.544 220.95 63.6702 221.7 63.0534 222.05C63.2076 221.6 63.5674 220.55 64.2356 220.55H64.287Z" fill="#407BFF"/>
<path d="M46.4 211.75L43.0076 222.9L39.6152 222.7L40.3348 210.6L46.4 211.75Z" fill="#EF8274"/>
<path d="M44.7554 221.25H43.2134C42.8536 221.25 42.5452 221.4 42.3396 221.7C41.4658 222.9 40.7976 222.45 39.821 221.3C39.2042 221.25 39.05 221.9 38.9986 222.1L37.8678 226.2C37.765 226.55 37.9706 226.9 38.3304 227C38.3818 227 38.4332 227.05 38.536 227H50.7692C52.7224 227 53.1336 225.1 52.3112 224.9C48.7132 224.1 46.1432 223.1 45.0124 222.05C44.7554 221.95 44.961 221.8 44.7554 221.25Z" fill="#263238"/>
<path d="M47.8907 222.4C48.0449 222.3 48.1477 222.1 48.1477 221.9C48.1477 221.8 48.0963 221.7 48.0449 221.65C47.5823 221.3 45.6291 222.2 45.4235 222.3L45.3721 222.35C45.3721 222.4 45.3721 222.45 45.4235 222.45C45.8861 222.55 46.4001 222.6 46.8627 222.65C47.2225 222.65 47.5823 222.6 47.8907 222.4ZM47.9421 221.8C47.9935 221.8 47.9935 221.85 47.9935 221.9C47.9935 222.05 47.8907 222.15 47.7879 222.25C47.3253 222.55 46.2973 222.45 45.7319 222.35C46.5029 222 47.6337 221.6 47.9421 221.8Z" fill="#407BFF"/>
<path d="M45.4749 222.45C46.0403 222.2 47.2739 221.3 47.2225 220.8C47.2225 220.7 47.1197 220.55 46.8627 220.55C45.7833 220.45 45.3721 222.3 45.3721 222.35C45.3721 222.4 45.3721 222.4 45.3721 222.45C45.3721 222.45 45.4235 222.45 45.4749 222.45ZM46.8113 220.7C47.0169 220.7 47.0169 220.8 47.0169 220.8C47.0683 221.1 46.1945 221.85 45.5777 222.2C45.7319 221.75 46.0917 220.7 46.7599 220.7H46.8113Z" fill="#407BFF"/>
<path d="M64.1329 129.2C64.1329 129.2 68.2962 137.35 64.287 152.3C60.2778 167.25 46.2456 219.6 46.2456 219.6L37.7646 218.6C37.7646 218.6 38.4843 199.75 44.8579 184.7C44.8579 184.7 48.4044 155.25 47.839 154.35C46.811 150.15 45.7316 145.7 47.5306 139.3C48.2502 136.55 49.2268 133.85 50.4604 131.3C51.6426 129 51.2829 128.15 51.2829 128.15L64.1329 129.2Z" fill="#407BFF"/>
<path opacity="0.5" d="M64.1329 129.2C64.1329 129.2 68.2962 137.35 64.287 152.3C60.2778 167.25 46.2456 219.6 46.2456 219.6L37.7646 218.6C37.7646 218.6 38.4843 199.75 44.8579 184.7C44.8579 184.7 48.4044 155.25 47.839 154.35C46.811 150.15 45.7316 145.7 47.5306 139.3C48.2502 136.55 49.2268 133.85 50.4604 131.3C51.6426 129 51.2829 128.15 51.2829 128.15L64.1329 129.2Z" fill="black"/>
<path opacity="0.5" d="M53.853 149.65C53.853 149.65 56.9884 155.55 58.4276 156.55C59.6612 157.4 59.1472 167.2 59.25 170C59.25 170.2 59.25 171.05 59.25 171.05L57.965 175.85C58.0678 175.55 58.222 167.2 57.194 158.4C56.8342 155.45 53.853 153 53.853 149.65Z" fill="black"/>
<path d="M69.6329 127.95C69.7871 128.95 70.0441 129.95 70.4553 130.85C71.8431 134.3 73.3851 145.25 73.0767 150.8C72.4085 162.25 73.4879 165.55 69.8385 186.85C68.4507 194.85 65.3667 205.35 62.7967 219.95H54.7783C54.7783 219.95 55.1381 201.7 58.8389 185.6C58.8389 185.6 60.1239 162.95 58.2221 157.05C56.8857 152.95 53.0307 148.95 54.0073 140.25C54.9839 131.55 57.3483 128.6 57.3483 128.6L69.6329 127.95Z" fill="#407BFF"/>
<path opacity="0.5" d="M69.6329 127.95C69.7871 128.95 70.0441 129.95 70.4553 130.85C71.8431 134.3 73.3851 145.25 73.0767 150.8C73.1281 157.65 72.9225 172.65 69.8385 186.85C66.1377 203.9 62.7967 219.95 62.7967 219.95H54.7783C54.7783 219.95 55.1381 201.7 58.8389 185.6C58.8389 185.6 60.1239 162.95 58.2221 157.05C56.8857 152.95 53.0307 148.95 54.0073 140.25C54.9839 131.55 57.3483 128.6 57.3483 128.6L69.6329 127.95Z" fill="black"/>
<path d="M43.0591 109.2C43.0591 109.2 36.1715 123 39.0499 124.1C41.9283 125.2 51.6429 125.85 51.6429 125.85L55.8577 129.8L58.3249 128.25L57.7081 124.25L52.1569 123.1L44.7039 120.9C44.0871 120.7 43.7787 120.05 43.9843 119.45C43.9843 119.4 43.9843 119.4 44.0357 119.35L47.6337 111.7L43.0591 109.2Z" fill="#EF8274"/>
<path d="M61.46 85.95C61.4086 85.6 61.5628 85.25 61.8198 85.25C62.0768 85.25 62.2824 85.5 62.3338 85.85C62.3852 86.2 62.231 86.55 61.974 86.55C61.717 86.6 61.46 86.3 61.46 85.95Z" fill="#263238"/>
<path d="M61.3057 86.45L63.7215 88.6C63.2075 89.15 62.4365 89.45 61.6141 89.35L61.3057 86.45Z" fill="#D7504D"/>
<path d="M60.6893 85.15C60.7407 85.15 60.8435 85.1 60.8435 85.05C61.1005 84.55 61.5631 84.2 62.1285 84.1C62.2313 84.1 62.3341 84 62.3341 83.85C62.3341 83.75 62.2313 83.65 62.0771 83.65C61.3575 83.75 60.7921 84.2 60.4323 84.8C60.3809 84.9 60.4323 85.05 60.5351 85.1C60.5865 85.15 60.6379 85.15 60.6893 85.15Z" fill="#263238"/>
<path d="M48.5072 87.6C49.5866 92.15 49.895 94.05 52.6706 96.05C56.7312 97.85 62.3338 96.75 62.6936 92C63.002 87.75 61.2544 81.05 56.32 79.95C52.8248 79.15 49.3296 81.3 48.5072 84.7C48.2502 85.65 48.2502 86.65 48.5072 87.6Z" fill="#EF8274"/>
<path opacity="0.2" d="M57.6053 94.85C57.6053 94.85 60.6379 96 62.3855 93.55C61.5631 95.6 59.5071 96.65 57.1941 96.85L56.5259 96.2L57.1427 95.2L57.6053 94.85Z" fill="black"/>
<path d="M50.5635 100.85C50.5635 100.85 53.5447 100.05 52.4653 94.65C52.4653 94.65 55.0353 92.95 57.1427 94.2C59.2501 95.45 56.4745 99.8 58.9931 101C59.0445 101 57.2969 102.6 50.5635 100.85Z" fill="#EF8274"/>
<path d="M58.3758 88.2C57.8104 87.4 59.4038 86.1 58.9926 85.25C59.044 82.95 58.5814 83.15 58.6842 80.7C58.787 78.25 55.96 79.25 55.96 79.25C55.96 79.25 49.9462 77.5 47.993 83.55C45.1146 86.55 45.2688 91.25 48.4042 94.05C49.8434 95.35 51.6938 96.05 53.5956 96.05H54.0068C55.7544 95.8 57.1422 94.5 57.4506 92.85L58.3758 88.2Z" fill="#263238"/>
<path d="M49.3811 85.25C49.5353 83.8 49.3811 82.65 47.8905 82.45C46.3999 82.25 46.1429 83.45 45.9373 84.9C45.7317 86.35 45.8345 87.5 47.3251 87.65C48.8157 87.8 49.2269 86.7 49.3811 85.25Z" fill="#407BFF"/>
<path d="M57.1423 87.7C57.9647 88.2 58.5815 89 58.7871 89.95C59.0441 91.15 57.9133 91.75 56.7311 91.35C55.7031 91 54.2639 89.95 54.5209 88.7C54.6751 87.8 55.5489 87.25 56.4741 87.4C56.7311 87.45 56.9367 87.55 57.1423 87.7Z" fill="#EF8274"/>
<path d="M58.3248 78.75C57.8108 79.25 57.2454 80 57.6052 80.65C57.8108 81 58.222 81.2 58.479 81.55C58.736 81.95 58.8388 82.4 58.7874 82.85C58.7874 84.5 58.6332 86.2 58.3248 87.85C59.8154 86.1 61.4602 84.25 61.9228 82C62.077 81.35 62.077 80.65 61.8714 79.95C61.6658 79.3 61.1518 78.75 60.4836 78.5C59.764 78.35 58.3248 78.75 58.3248 78.75Z" fill="#263238"/>
<path d="M71.8431 107.85L77.8569 113.45C78.2681 113.85 78.9877 113.85 79.3989 113.4L79.4503 113.35L87.0061 104.7L90.0386 100.05L90.7583 99.5501L95.2814 97.1C95.487 97 95.7441 97.05 95.8469 97.25C96.0011 97.45 95.8982 97.75 95.6926 97.85L93.0713 99.4001L93.5339 100.75C94.0993 102 93.688 103.5 92.4544 104.25L88.7536 106.6C88.7536 106.6 83.7164 117.75 80.3754 119.7C77.7026 121.25 67.8853 111.2 67.8853 111.2L71.8431 107.85Z" fill="#EF8274"/>
<path d="M45.1152 104.2C44.961 103.8 45.3208 102.95 44.9096 103.05C44.7554 103.1 44.0358 103.85 43.933 103.95C43.2134 104.75 42.0312 106.25 40.7976 109.45L39.564 112.7L45.9376 117L48.3534 113.45L45.1152 104.2Z" fill="#407BFF"/>
<path opacity="0.2" d="M44.3955 108.05L45.1151 107.15L46.5029 108.15L48.3019 113.4L45.8861 116.95L44.6525 116.15C45.0637 112.8 44.3955 108.05 44.3955 108.05Z" fill="black"/>
<path d="M69.479 129.15C62.1802 130.55 53.802 129.95 50.7694 129.7C50.0498 129.65 51.3348 121.7 43.9846 107.3C43.2136 105.95 43.5734 104.25 44.7556 103.25C49.7928 99.2 58.8906 99.35 63.054 99.7C64.5446 99.8 65.881 100.55 66.7034 101.75C68.1426 104.15 69.1192 106.8 69.5818 109.55C70.0958 112.15 70.3528 114.8 70.4042 117.45C70.6098 123.7 69.8388 129.05 69.479 129.15Z" fill="#407BFF"/>
<path opacity="0.2" d="M70.404 117.4C68.0396 116.95 64.75 108.5 64.75 108.5L69.5816 109.45C70.0956 112.1 70.3526 114.75 70.404 117.4Z" fill="black"/>
<path d="M64.1847 99.9C65.9837 100.45 69.9929 102.2 76.2637 107.95L70.4555 115.5C68.5537 113.5 66.0865 111.3 64.7501 108.55C63.5679 106.1 62.9511 103.45 63.0025 100.75C63.0025 100.25 63.4137 99.85 63.9277 99.85C64.0305 99.85 64.1333 99.85 64.1847 99.9Z" fill="#407BFF"/>
<path d="M47.7879 84.9L47.7365 83.6C45.8347 82.1 42.7507 82.3 41.1059 84.05C40.0265 85.15 39.5125 86.75 39.2555 88.3C38.9985 89.85 38.8957 91.4 38.4331 92.9C37.9191 94.4 36.9425 95.8 35.4519 96.35C34.3211 96.75 33.0361 96.65 31.9567 97.1C30.3119 97.85 29.6437 100.05 30.5689 101.55C31.4427 102.95 33.5501 103.4 34.9893 102.6C34.5267 103.05 34.5781 103.95 35.1435 104.4C35.7603 104.9 36.6855 104.9 37.5079 104.7C39.3583 104.25 41.0031 102.9 41.7227 101.15C41.9797 101.75 42.6993 102.1 43.3675 102.05C44.0357 102 44.6525 101.65 45.1665 101.2C47.4795 99.35 48.6103 96.4 48.8159 93.5C49.0215 90.65 48.4047 87.75 47.7879 84.9Z" fill="#263238"/>
</g>
<defs>
<clipPath id="clip0_3723_2705">
<rect width="257" height="250" fill="white" transform="translate(0.5 0.5)"/>
</clipPath>
</defs>
</svg>
