<svg width="400" height="400" viewBox="0 0 400 400" fill="none" xmlns="http://www.w3.org/2000/svg">
<path d="M359.921 318.795H333.423V318.995H359.921V318.795Z" fill="#EBEBEB"/>
<path d="M264.976 320.967H258.022V321.167H264.976V320.967Z" fill="#EBEBEB"/>
<path d="M332.622 311.366H317.269V311.566H332.622V311.366Z" fill="#EBEBEB"/>
<path d="M76.5216 312.71H41.9672V312.91H76.5216V312.71Z" fill="#EBEBEB"/>
<path d="M88.7112 312.71H83.6448V312.91H88.7112V312.71Z" fill="#EBEBEB"/>
<path d="M180.118 316.089H105.177V316.289H180.118V316.089Z" fill="#EBEBEB"/>
<!-- <path d="M189.611 270.24H35.132C32.6144 270.24 30.5656 268.191 30.5656 265.674V48.5281C30.5656 46.0105 32.6144 43.9617 35.132 43.9617H189.611C192.128 43.9617 194.177 46.0105 194.177 48.5281V265.674C194.177 268.191 192.128 270.24 189.611 270.24ZM35.132 44.1625C32.724 44.1625 30.7656 46.1209 30.7656 48.5289V265.674C30.7656 268.082 32.724 270.041 35.132 270.041H189.611C192.018 270.041 193.977 268.082 193.977 265.674V48.5281C193.977 46.1209 192.018 44.1617 189.611 44.1617L35.132 44.1625Z" fill="#EBEBEB"/> -->
<!-- <path d="M362.648 270.24H208.17C205.652 270.24 203.604 268.191 203.604 265.674V48.5281C203.604 46.0105 205.653 43.9617 208.17 43.9617H362.648C365.166 43.9617 367.214 46.0105 367.214 48.5281V265.674C367.215 268.191 365.166 270.24 362.648 270.24ZM208.17 44.1625C205.762 44.1625 203.804 46.1209 203.804 48.5289V265.674C203.804 268.082 205.762 270.041 208.17 270.041H362.648C365.056 270.041 367.014 268.082 367.014 265.674V48.5281C367.014 46.1209 365.056 44.1617 362.648 44.1617L208.17 44.1625Z" fill="#EBEBEB"/> -->
<path d="M400 305.918H0V306.118H400V305.918Z" fill="#EBEBEB"/>
<path d="M63.9775 98.8928H62.6567V201.862H63.9775V98.8928Z" fill="#E0E0E0"/>
<path d="M146.174 98.8928H144.854V201.862H146.174V98.8928Z" fill="#E0E0E0"/>
<path d="M151.346 105.366H57.4848L55.504 100.745H153.326L151.346 105.366Z" fill="#EBEBEB"/>
<path d="M151.346 111.711H57.4848L55.504 107.09H153.326L151.346 111.711Z" fill="#EBEBEB"/>
<path d="M151.346 118.056H57.4848L55.504 113.435H153.326L151.346 118.056Z" fill="#EBEBEB"/>
<path d="M151.346 124.402H57.4848L55.504 119.78H153.326L151.346 124.402Z" fill="#EBEBEB"/>
<path d="M151.346 130.746H57.4848L55.504 126.125H153.326L151.346 130.746Z" fill="#EBEBEB"/>
<path d="M151.346 137.091H57.4848L55.504 132.469H153.326L151.346 137.091Z" fill="#EBEBEB"/>
<path d="M151.346 143.437H57.4848L55.504 138.815H153.326L151.346 143.437Z" fill="#EBEBEB"/>
<path d="M151.346 149.782H57.4848L55.504 145.16H153.326L151.346 149.782Z" fill="#EBEBEB"/>
<path d="M151.346 156.126H57.4848L55.504 151.505H153.326L151.346 156.126Z" fill="#EBEBEB"/>
<path d="M151.346 162.471H57.4848L55.504 157.85H153.326L151.346 162.471Z" fill="#EBEBEB"/>
<path d="M151.346 168.816H57.4848L55.504 164.194H153.326L151.346 168.816Z" fill="#EBEBEB"/>
<path d="M151.346 175.162H57.4848L55.504 170.54H153.326L151.346 175.162Z" fill="#EBEBEB"/>
<path d="M151.346 181.506H57.4848L55.504 176.885H153.326L151.346 181.506Z" fill="#EBEBEB"/>
<path d="M151.346 187.851H57.4848L55.504 183.229H153.326L151.346 187.851Z" fill="#EBEBEB"/>
<path d="M151.346 194.196H57.4848L55.504 189.575H153.326L151.346 194.196Z" fill="#EBEBEB"/>
<path d="M151.346 200.542H57.4848L55.504 195.92H153.326L151.346 200.542Z" fill="#EBEBEB"/>
<path d="M153.326 200.542H55.504V203.182H153.326V200.542Z" fill="#E0E0E0"/>
<path d="M156.738 94.9568H52.0928V101.119H156.738V94.9568Z" fill="#E0E0E0"/>
<path d="M53.1672 156.988C52.5792 156.988 52.1024 156.511 52.1024 155.923V119.982C52.1024 119.394 52.5792 118.917 53.1672 118.917C53.7552 118.917 54.232 119.394 54.232 119.982V155.923C54.232 156.511 53.7552 156.988 53.1672 156.988Z" fill="#E0E0E0"/>
<path d="M53.5528 99.8833H52.7823V121.229H53.5528V99.8833Z" fill="#E0E0E0"/>
<path d="M256.951 98.8928H255.63V201.862H256.951V98.8928Z" fill="#E0E0E0"/>
<path d="M339.149 98.8928H337.828V201.862H339.149V98.8928Z" fill="#E0E0E0"/>
<path d="M344.32 105.366H250.458L248.478 100.745H346.301L344.32 105.366Z" fill="#EBEBEB"/>
<path d="M344.32 111.711H250.458L248.478 107.09H346.301L344.32 111.711Z" fill="#EBEBEB"/>
<path d="M344.32 118.056H250.458L248.478 113.435H346.301L344.32 118.056Z" fill="#EBEBEB"/>
<path d="M344.32 124.402H250.458L248.478 119.78H346.301L344.32 124.402Z" fill="#EBEBEB"/>
<path d="M344.32 130.746H250.458L248.478 126.125H346.301L344.32 130.746Z" fill="#EBEBEB"/>
<path d="M344.32 137.091H250.458L248.478 132.469H346.301L344.32 137.091Z" fill="#EBEBEB"/>
<path d="M344.32 143.437H250.458L248.478 138.815H346.301L344.32 143.437Z" fill="#EBEBEB"/>
<path d="M344.32 149.782H250.458L248.478 145.16H346.301L344.32 149.782Z" fill="#EBEBEB"/>
<path d="M344.32 156.126H250.458L248.478 151.505H346.301L344.32 156.126Z" fill="#EBEBEB"/>
<path d="M344.32 162.471H250.458L248.478 157.85H346.301L344.32 162.471Z" fill="#EBEBEB"/>
<path d="M344.32 168.816H250.458L248.478 164.194H346.301L344.32 168.816Z" fill="#EBEBEB"/>
<path d="M344.32 175.162H250.458L248.478 170.54H346.301L344.32 175.162Z" fill="#EBEBEB"/>
<path d="M344.32 181.506H250.458L248.478 176.885H346.301L344.32 181.506Z" fill="#EBEBEB"/>
<path d="M344.32 187.851H250.458L248.478 183.229H346.301L344.32 187.851Z" fill="#EBEBEB"/>
<path d="M344.32 194.196H250.458L248.478 189.575H346.301L344.32 194.196Z" fill="#EBEBEB"/>
<path d="M344.32 200.542H250.458L248.478 195.92H346.301L344.32 200.542Z" fill="#EBEBEB"/>
<path d="M346.301 200.542H248.478V203.182H346.301V200.542Z" fill="#E0E0E0"/>
<path d="M349.712 94.9568H245.067V101.119H349.712V94.9568Z" fill="#E0E0E0"/>
<path d="M246.142 156.988C245.554 156.988 245.077 156.511 245.077 155.923V119.982C245.077 119.394 245.554 118.917 246.142 118.917C246.73 118.917 247.206 119.394 247.206 119.982V155.923C247.206 156.511 246.73 156.988 246.142 156.988Z" fill="#E0E0E0"/>
<path d="M246.526 99.8833H245.756V121.229H246.526V99.8833Z" fill="#E0E0E0"/>
<path d="M311.73 84.092H88.2704V210.49H311.73V84.092Z" fill="#E0E0E0"/>
<path d="M312.889 213.572H87.1112C86.3872 213.572 85.8 212.985 85.8 212.261V209.601C85.8 208.877 86.3872 208.29 87.1112 208.29H312.889C313.613 208.29 314.2 208.877 314.2 209.601V212.261C314.2 212.985 313.613 213.572 312.889 213.572Z" fill="#EBEBEB"/>
<path d="M306.597 87.9321H93.4025V209.492H306.597V87.9321Z" fill="#FAFAFA"/>
<path d="M211.738 232.106C208.225 228.241 204.712 224.375 201.2 220.509C201.2 218.197 201.2 215.884 201.2 213.572C201.2 211.873 198.8 211.87 198.8 213.572C198.8 215.884 198.8 218.197 198.8 220.509C195.287 224.374 191.774 228.24 188.262 232.106C187.168 233.31 188.865 235.178 189.958 233.974C192.906 230.731 195.852 227.488 198.799 224.245C198.799 227.144 198.799 230.043 198.799 232.942C198.799 234.642 201.199 234.645 201.199 232.942C201.199 230.043 201.199 227.144 201.199 224.245C204.146 227.488 207.093 230.731 210.04 233.974C211.134 235.177 212.832 233.31 211.738 232.106Z" fill="#E6E6E6"/>
<path d="M316.796 89.8937H83.2048C81.376 89.8937 79.8928 88.4105 79.8928 86.5817V81.6025C79.8928 79.7737 81.376 78.2905 83.2048 78.2905H316.796C318.625 78.2905 320.108 79.7737 320.108 81.6025V86.5817C320.108 88.4105 318.625 89.8937 316.796 89.8937Z" fill="#F0F0F0"/>
<path d="M149.48 234.766H55.036V267.366H149.48V234.766Z" fill="#EBEBEB"/>
<path d="M149.48 267.366H55.036V299.966H149.48V267.366Z" fill="#EBEBEB"/>
<path d="M90.9256 267.366L102.676 234.766H84.5912L72.84 267.366H90.9256Z" fill="#F0F0F0"/>
<path d="M111.429 234.766H107.456L95.7056 267.366H99.6776L111.429 234.766Z" fill="#F0F0F0"/>
<path d="M79.1744 299.967L90.9256 267.366H72.8408L61.0896 299.967H79.1744Z" fill="#F0F0F0"/>
<path d="M99.6775 267.366H95.7055L83.9543 299.967H87.9271L99.6775 267.366Z" fill="#F0F0F0"/>
<path d="M149.48 239.779V236.481L55.0362 236.481V239.779L149.48 239.779Z" fill="#E0E0E0"/>
<path d="M149.48 272.125V268.827H55.0365V272.125H149.48Z" fill="#E0E0E0"/>
<path d="M104.674 255.239C105.457 255.239 106.091 254.604 106.091 253.822C106.091 253.039 105.457 252.405 104.674 252.405C104.278 252.405 100.239 252.405 99.8425 252.405C99.0601 252.405 98.4257 253.039 98.4257 253.822C98.4257 254.604 99.0601 255.239 99.8425 255.239C100.27 255.239 104.246 255.239 104.674 255.239Z" fill="#E0E0E0"/>
<path d="M104.674 254.739C105.457 254.739 106.091 254.105 106.091 253.323C106.091 252.54 105.457 251.906 104.674 251.906C104.278 251.906 100.239 251.906 99.8425 251.906C99.0601 251.906 98.4257 252.54 98.4257 253.323C98.4257 254.105 99.0601 254.739 99.8425 254.739C100.27 254.739 104.246 254.739 104.674 254.739Z" fill="#F5F5F5"/>
<path d="M104.674 285.332C105.457 285.332 106.091 284.698 106.091 283.916C106.091 283.133 105.457 282.499 104.674 282.499C104.278 282.499 100.239 282.499 99.8425 282.499C99.0601 282.499 98.4257 283.133 98.4257 283.916C98.4257 284.698 99.0601 285.332 99.8425 285.332C100.27 285.332 104.246 285.332 104.674 285.332Z" fill="#E0E0E0"/>
<path d="M104.674 284.833C105.457 284.833 106.091 284.199 106.091 283.416C106.091 282.634 105.457 282 104.674 282C104.278 282 100.239 282 99.8425 282C99.0601 282 98.4257 282.634 98.4257 283.416C98.4257 284.199 99.0601 284.833 99.8425 284.833C100.27 284.833 104.246 284.833 104.674 284.833Z" fill="#F5F5F5"/>
<path d="M53.3872 233.304V301.391H55.036H56.6856H147.831H149.48H151.129V233.304H53.3872ZM147.831 298.092H56.6856V269.089H147.831V298.092ZM147.831 265.791H56.6856V236.788H147.831V265.791Z" fill="#F5F5F5"/>
<path d="M247.222 234.766H152.778V267.366H247.222V234.766Z" fill="#EBEBEB"/>
<path d="M247.222 267.366H152.778V299.966H247.222V267.366Z" fill="#EBEBEB"/>
<path d="M226.003 267.366L237.754 234.766H219.67L207.918 267.366H226.003Z" fill="#F0F0F0"/>
<path d="M246.507 234.766H242.534L230.783 267.366H234.756L246.507 234.766Z" fill="#F0F0F0"/>
<path d="M214.253 299.967L226.003 267.366H207.918L196.168 299.967H214.253Z" fill="#F0F0F0"/>
<path d="M234.756 267.366H230.783L219.033 299.967H223.006L234.756 267.366Z" fill="#F0F0F0"/>
<path d="M247.222 239.779V236.481L152.778 236.481V239.779L247.222 239.779Z" fill="#E0E0E0"/>
<path d="M247.223 272.125V268.827H152.779V272.125H247.223Z" fill="#E0E0E0"/>
<path d="M202.416 255.239C203.198 255.239 203.833 254.604 203.833 253.822C203.833 253.039 203.198 252.405 202.416 252.405C202.019 252.405 197.981 252.405 197.584 252.405C196.802 252.405 196.167 253.039 196.167 253.822C196.167 254.604 196.802 255.239 197.584 255.239C198.013 255.239 201.988 255.239 202.416 255.239Z" fill="#E0E0E0"/>
<path d="M202.416 254.739C203.198 254.739 203.833 254.105 203.833 253.323C203.833 252.54 203.198 251.906 202.416 251.906C202.019 251.906 197.981 251.906 197.584 251.906C196.802 251.906 196.167 252.54 196.167 253.323C196.167 254.105 196.802 254.739 197.584 254.739C198.013 254.739 201.988 254.739 202.416 254.739Z" fill="#F5F5F5"/>
<path d="M202.416 285.332C203.198 285.332 203.833 284.698 203.833 283.916C203.833 283.133 203.198 282.499 202.416 282.499C202.019 282.499 197.981 282.499 197.584 282.499C196.802 282.499 196.167 283.133 196.167 283.916C196.167 284.698 196.802 285.332 197.584 285.332C198.013 285.332 201.988 285.332 202.416 285.332Z" fill="#E0E0E0"/>
<path d="M202.416 284.833C203.198 284.833 203.833 284.199 203.833 283.416C203.833 282.634 203.198 282 202.416 282C202.019 282 197.981 282 197.584 282C196.802 282 196.167 282.634 196.167 283.416C196.167 284.199 196.802 284.833 197.584 284.833C198.013 284.833 201.988 284.833 202.416 284.833Z" fill="#F5F5F5"/>
<path d="M151.13 233.304V301.391H152.778H154.427H245.573H247.222H248.87V233.304H151.13ZM245.574 298.092H154.428V269.089H245.574V298.092ZM245.574 265.791H154.428V236.788H245.574V265.791Z" fill="#F5F5F5"/>
<path d="M344.964 234.766H250.52V267.366H344.964V234.766Z" fill="#EBEBEB"/>
<path d="M344.964 267.366H250.52V299.966H344.964V267.366Z" fill="#EBEBEB"/>
<path d="M310.326 267.366L322.077 234.766H303.992L292.242 267.366H310.326Z" fill="#F0F0F0"/>
<path d="M330.83 234.766H326.857L315.106 267.366H319.078L330.83 234.766Z" fill="#F0F0F0"/>
<path d="M298.576 299.967L310.326 267.366H292.242L280.49 299.967H298.576Z" fill="#F0F0F0"/>
<path d="M319.079 267.366H315.106L303.355 299.967H307.328L319.079 267.366Z" fill="#F0F0F0"/>
<path d="M344.964 239.78V236.481L250.52 236.481V239.78L344.964 239.78Z" fill="#E0E0E0"/>
<path d="M344.964 272.125V268.827H250.52V272.125H344.964Z" fill="#E0E0E0"/>
<path d="M300.157 255.239C300.94 255.239 301.574 254.604 301.574 253.822C301.574 253.039 300.94 252.405 300.157 252.405C299.761 252.405 295.722 252.405 295.326 252.405C294.543 252.405 293.909 253.039 293.909 253.822C293.909 254.604 294.543 255.239 295.326 255.239C295.754 255.239 299.729 255.239 300.157 255.239Z" fill="#E0E0E0"/>
<path d="M300.157 254.739C300.94 254.739 301.574 254.105 301.574 253.323C301.574 252.54 300.94 251.906 300.157 251.906C299.761 251.906 295.722 251.906 295.326 251.906C294.543 251.906 293.909 252.54 293.909 253.323C293.909 254.105 294.543 254.739 295.326 254.739C295.754 254.739 299.729 254.739 300.157 254.739Z" fill="#F5F5F5"/>
<path d="M300.157 285.332C300.94 285.332 301.574 284.698 301.574 283.916C301.574 283.133 300.94 282.499 300.157 282.499C299.761 282.499 295.722 282.499 295.326 282.499C294.543 282.499 293.909 283.133 293.909 283.916C293.909 284.698 294.543 285.332 295.326 285.332C295.754 285.332 299.729 285.332 300.157 285.332Z" fill="#E0E0E0"/>
<path d="M300.157 284.833C300.94 284.833 301.574 284.199 301.574 283.416C301.574 282.634 300.94 282 300.157 282C299.761 282 295.722 282 295.326 282C294.543 282 293.909 282.634 293.909 283.416C293.909 284.199 294.543 284.833 295.326 284.833C295.754 284.833 299.729 284.833 300.157 284.833Z" fill="#F5F5F5"/>
<path d="M248.87 233.304V301.391H250.519H252.168H343.314H344.962H346.611V233.304H248.87ZM343.314 298.092H252.169V269.089H343.314V298.092ZM343.314 265.791H252.169V236.788H343.314V265.791Z" fill="#F5F5F5"/>
<path d="M337.163 306.296H62.8368L61.4088 301.391H338.591L337.163 306.296Z" fill="#E0E0E0"/>
<path d="M200 338.971C285.666 338.971 355.111 334.916 355.111 329.913C355.111 324.91 285.666 320.854 200 320.854C114.334 320.854 44.8888 324.91 44.8888 329.913C44.8888 334.916 114.334 338.971 200 338.971Z" fill="#F5F5F5"/>
<path d="M106.195 192.004H283.779C288.621 192.004 292.202 188.079 291.778 183.238L282.234 74.144C281.81 69.3024 277.542 65.3784 272.701 65.3784H95.1168C90.276 65.3784 86.6944 69.3032 87.1176 74.144L96.6624 183.238C97.0856 188.08 101.354 192.004 106.195 192.004Z" fill="#263238"/>
<path opacity="0.7" d="M106.195 192.004H283.779C288.621 192.004 292.202 188.079 291.778 183.238L282.234 74.144C281.81 69.3024 277.542 65.3784 272.701 65.3784H95.1168C90.276 65.3784 86.6944 69.3032 87.1176 74.144L96.6624 183.238C97.0856 188.08 101.354 192.004 106.195 192.004Z" fill="white"/>
<path d="M106.385 180.839H279.558L269.954 71.0601H96.78L106.385 180.839Z" fill="#01579B"/>
<path d="M108.767 189.432H286.351C291.193 189.432 294.774 185.507 294.35 180.666L284.806 71.572C284.382 66.7304 280.114 62.8064 275.273 62.8064H97.6888C92.848 62.8064 89.2664 66.7312 89.6896 71.572L99.2344 180.666C99.6576 185.507 103.926 189.432 108.767 189.432Z" fill="#01579B"/>
<path d="M106.385 180.839H279.558L269.954 71.0601H96.78L106.385 180.839Z" fill="#01579B"/>
<path opacity="0.4" d="M106.385 181.008H279.558L269.954 71.2297H96.78L106.385 181.008Z" fill="white"/>
<path d="M270.819 81.1193H97.6456L96.78 71.2297H269.954L270.819 81.1193Z" fill="#01579B"/>
<path opacity="0.5" d="M270.819 81.1193H97.6456L96.78 71.2297H269.954L270.819 81.1193Z" fill="black"/>
<path d="M104.095 75.2984L104.173 76.1872H105.727L105.782 76.8112H104.227L104.334 78.036H103.557L103.262 74.6736H105.8L105.854 75.2984H104.095Z" fill="white"/>
<path d="M106.233 76.3544C106.146 75.3552 106.858 74.6152 107.918 74.6152C108.974 74.6152 109.82 75.3504 109.908 76.3544C109.996 77.3584 109.278 78.0928 108.222 78.0928C107.162 78.0936 106.32 77.3536 106.233 76.3544ZM109.121 76.3544C109.065 75.7152 108.576 75.2784 107.976 75.2784C107.376 75.2784 106.963 75.7152 107.019 76.3544C107.075 76.9928 107.565 77.4304 108.164 77.4304C108.764 77.4312 109.177 76.9936 109.121 76.3544Z" fill="white"/>
<path d="M112.782 78.036L112.052 77.0992H112.014H111.337L111.418 78.036H110.641L110.346 74.6736H111.8C112.697 74.6736 113.299 75.14 113.366 75.8936C113.41 76.3976 113.187 76.7672 112.767 76.9552L113.615 78.036H112.782ZM111.814 75.3072H111.18L111.282 76.4792H111.916C112.391 76.4792 112.611 76.2584 112.58 75.8936C112.548 75.5232 112.289 75.3072 111.814 75.3072Z" fill="white"/>
<path d="M117.226 78.0362L117.044 76.0186L116.202 77.681H115.851L114.726 76.0626L114.899 78.037H114.169L113.875 74.6746H114.518L115.958 76.7642L117.012 74.6746H117.651L117.954 78.037L117.226 78.0362Z" fill="white"/>
<path d="M108.992 88.9561L109.057 89.6961H110.354L110.4 90.2161H109.103L109.192 91.2361H108.543L108.298 88.4353H110.417L110.462 88.9553L108.992 88.9561Z" fill="#01579B"/>
<path d="M110.694 88.4361C110.678 88.2401 110.82 88.0881 111.052 88.0881C111.285 88.0881 111.454 88.2321 111.47 88.4241C111.489 88.6321 111.346 88.7849 111.114 88.7849C110.881 88.7841 110.711 88.6321 110.694 88.4361ZM110.827 89.0841H111.452L111.64 91.2361H111.015L110.827 89.0841Z" fill="#01579B"/>
<path d="M113.366 89.0522L113.416 89.6282C113.364 89.6242 113.323 89.6202 113.275 89.6202C112.93 89.6202 112.719 89.8082 112.755 90.2202L112.844 91.2362H112.219L112.031 89.0842H112.628L112.653 89.3682C112.786 89.1602 113.034 89.0522 113.366 89.0522Z" fill="#01579B"/>
<path d="M113.709 91.0362L113.878 90.5882C114.081 90.7122 114.38 90.7962 114.645 90.7962C114.933 90.7962 115.034 90.7202 115.024 90.6002C114.994 90.2482 113.723 90.6082 113.649 89.7482C113.613 89.3402 113.956 89.0522 114.585 89.0522C114.881 89.0522 115.215 89.1202 115.43 89.2402L115.26 89.6842C115.038 89.5642 114.822 89.5242 114.626 89.5242C114.346 89.5242 114.233 89.6122 114.243 89.7242C114.275 90.0922 115.546 89.7362 115.62 90.5842C115.655 90.9842 115.307 91.2682 114.662 91.2682C114.298 91.2682 113.921 91.1682 113.709 91.0362Z" fill="#01579B"/>
<path d="M117.439 91.133C117.319 91.225 117.134 91.2682 116.942 91.2682C116.434 91.2682 116.115 91.0082 116.07 90.4962L115.993 89.6122H115.66L115.618 89.1322H115.951L115.905 88.6082H116.53L116.576 89.1322H117.112L117.154 89.6122H116.618L116.694 90.4882C116.71 90.6722 116.819 90.7721 116.987 90.7721C117.079 90.7721 117.17 90.7442 117.233 90.6922L117.439 91.133Z" fill="#01579B"/>
<path d="M121.3 88.436L121.545 91.2368H121.012L119.466 89.536L119.614 91.2368H118.974L118.729 88.436H119.265L120.807 90.1368L120.658 88.436H121.3Z" fill="#01579B"/>
<path d="M123.961 90.009L124.068 91.237H123.483L123.46 90.969C123.362 91.165 123.146 91.269 122.83 91.269C122.325 91.269 122 90.989 121.967 90.617C121.934 90.237 122.179 89.973 122.836 89.973H123.333C123.31 89.705 123.135 89.549 122.799 89.549C122.571 89.549 122.342 89.625 122.196 89.749L121.934 89.313C122.155 89.145 122.496 89.053 122.84 89.053C123.497 89.0522 123.904 89.3562 123.961 90.009ZM123.385 90.5562L123.366 90.3362H122.937C122.645 90.3362 122.562 90.4442 122.575 90.5882C122.588 90.7442 122.73 90.8482 122.95 90.8482C123.158 90.849 123.33 90.7522 123.385 90.5562Z" fill="#01579B"/>
<path d="M128.163 90.0042L128.271 91.2362H127.646L127.547 90.1002C127.516 89.7522 127.346 89.5922 127.095 89.5922C126.814 89.5922 126.634 89.7722 126.667 90.1562L126.762 91.2362H126.137L126.037 90.1002C126.007 89.7522 125.845 89.5922 125.584 89.5922C125.308 89.5922 125.127 89.7722 125.161 90.1562L125.255 91.2362H124.631L124.443 89.0842H125.039L125.061 89.3322C125.205 89.1482 125.437 89.0522 125.713 89.0522C126.013 89.0522 126.279 89.169 126.452 89.4042C126.605 89.185 126.874 89.0522 127.198 89.0522C127.711 89.0522 128.105 89.3482 128.163 90.0042Z" fill="#01579B"/>
<path d="M130.87 90.3362H129.241C129.324 90.6042 129.567 90.7682 129.895 90.7682C130.123 90.7682 130.282 90.7002 130.418 90.5602L130.781 90.921C130.601 91.149 130.311 91.269 129.922 91.269C129.178 91.269 128.652 90.801 128.596 90.161C128.54 89.517 128.992 89.053 129.648 89.053C130.281 89.053 130.806 89.477 130.866 90.1698C130.871 90.2162 130.87 90.2842 130.87 90.3362ZM129.201 89.9722H130.262C130.194 89.7002 129.974 89.5242 129.694 89.5242C129.41 89.5242 129.221 89.697 129.201 89.9722Z" fill="#01579B"/>
<path d="M115.347 144.198L115.393 144.718H113.223L112.978 141.917H115.096L115.142 142.437H113.668L113.721 143.045H115.022L115.066 143.549H113.765L113.822 144.197L115.347 144.198Z" fill="#01579B"/>
<path d="M119.394 143.486L119.502 144.718H118.878L118.778 143.582C118.748 143.234 118.578 143.074 118.326 143.074C118.046 143.074 117.866 143.254 117.899 143.638L117.994 144.719H117.369L117.269 143.583C117.238 143.235 117.077 143.075 116.817 143.075C116.54 143.075 116.36 143.255 116.394 143.639L116.488 144.72H115.863L115.675 142.567H116.272L116.294 142.815C116.438 142.631 116.67 142.534 116.946 142.534C117.246 142.534 117.513 142.65 117.685 142.886C117.838 142.666 118.106 142.534 118.431 142.534C118.942 142.534 119.337 142.83 119.394 143.486Z" fill="#01579B"/>
<path d="M121.858 143.49L121.965 144.718H121.381L121.358 144.449C121.258 144.646 121.043 144.75 120.726 144.75C120.222 144.75 119.897 144.47 119.865 144.098C119.831 143.718 120.077 143.454 120.734 143.454H121.23C121.207 143.186 121.033 143.03 120.697 143.03C120.469 143.03 120.239 143.106 120.094 143.23L119.831 142.794C120.053 142.626 120.394 142.534 120.738 142.534C121.393 142.534 121.8 142.838 121.858 143.49ZM121.281 144.038L121.262 143.818H120.833C120.541 143.818 120.458 143.926 120.47 144.069C120.484 144.225 120.625 144.33 120.846 144.33C121.054 144.33 121.226 144.234 121.281 144.038Z" fill="#01579B"/>
<path d="M122.206 141.917C122.189 141.721 122.331 141.569 122.563 141.569C122.795 141.569 122.964 141.713 122.982 141.904C123 142.112 122.857 142.265 122.625 142.265C122.392 142.266 122.223 142.114 122.206 141.917ZM122.338 142.566H122.963L123.151 144.718H122.526L122.338 142.566Z" fill="#01579B"/>
<path d="M123.471 141.749H124.096L124.356 144.718H123.731L123.471 141.749Z" fill="#01579B"/>
<path d="M111.756 106.859H110.455L110.259 107.459H109.594L110.598 104.658H111.239L112.738 107.459H112.057L111.756 106.859ZM111.509 106.367L110.971 105.295L110.621 106.367H111.509Z" fill="#01579B"/>
<path d="M114.898 104.49L115.157 107.459H114.561L114.539 107.211C114.399 107.399 114.179 107.491 113.891 107.491C113.282 107.491 112.776 107.059 112.717 106.383C112.658 105.707 113.088 105.275 113.697 105.275C113.961 105.275 114.193 105.359 114.364 105.535L114.273 104.491H114.898V104.49ZM114.45 106.382C114.418 106.01 114.158 105.786 113.85 105.786C113.537 105.786 113.317 106.01 113.349 106.382C113.382 106.755 113.642 106.978 113.954 106.978C114.262 106.979 114.483 106.755 114.45 106.382Z" fill="#01579B"/>
<path d="M117.666 104.49L117.925 107.459H117.329L117.307 107.211C117.167 107.399 116.947 107.491 116.659 107.491C116.051 107.491 115.545 107.059 115.485 106.383C115.426 105.707 115.856 105.275 116.465 105.275C116.729 105.275 116.961 105.359 117.132 105.535L117.041 104.491H117.666V104.49ZM117.219 106.382C117.186 106.01 116.927 105.786 116.618 105.786C116.305 105.786 116.084 106.01 116.117 106.382C116.15 106.755 116.41 106.978 116.722 106.978C117.031 106.979 117.251 106.755 117.219 106.382Z" fill="#01579B"/>
<path d="M119.645 105.274L119.695 105.85C119.643 105.846 119.603 105.842 119.555 105.842C119.21 105.842 118.999 106.03 119.035 106.442L119.123 107.458H118.499L118.311 105.306H118.907L118.932 105.59C119.066 105.382 119.313 105.274 119.645 105.274Z" fill="#01579B"/>
<path d="M122.207 106.559H120.577C120.661 106.827 120.903 106.991 121.231 106.991C121.459 106.991 121.617 106.923 121.754 106.783L122.118 107.143C121.938 107.371 121.648 107.491 121.259 107.491C120.515 107.491 119.989 107.023 119.933 106.383C119.877 105.739 120.329 105.275 120.985 105.275C121.617 105.275 122.143 105.699 122.203 106.391C122.208 106.439 122.206 106.507 122.207 106.559ZM120.537 106.195H121.598C121.53 105.923 121.311 105.747 121.03 105.747C120.746 105.747 120.557 105.919 120.537 106.195Z" fill="#01579B"/>
<path d="M122.485 107.258L122.654 106.81C122.857 106.934 123.156 107.018 123.421 107.018C123.709 107.018 123.811 106.942 123.8 106.822C123.769 106.47 122.5 106.83 122.424 105.97C122.389 105.562 122.731 105.274 123.36 105.274C123.656 105.274 123.99 105.342 124.205 105.462L124.036 105.906C123.814 105.786 123.598 105.746 123.402 105.746C123.121 105.746 123.009 105.834 123.018 105.946C123.05 106.314 124.321 105.958 124.395 106.806C124.431 107.206 124.083 107.49 123.439 107.49C123.074 107.49 122.696 107.39 122.485 107.258Z" fill="#01579B"/>
<path d="M124.609 107.258L124.778 106.81C124.981 106.934 125.28 107.018 125.545 107.018C125.833 107.018 125.935 106.942 125.924 106.822C125.893 106.47 124.623 106.83 124.548 105.97C124.513 105.562 124.855 105.274 125.484 105.274C125.781 105.274 126.115 105.342 126.33 105.462L126.161 105.906C125.939 105.786 125.723 105.746 125.526 105.746C125.246 105.746 125.134 105.834 125.143 105.946C125.175 106.314 126.446 105.958 126.519 106.806C126.555 107.206 126.207 107.49 125.563 107.49C125.198 107.49 124.821 107.39 124.609 107.258Z" fill="#01579B"/>
<path d="M117.038 160.549C117.093 161.173 116.658 161.561 115.91 161.561H115.345L115.412 162.333H114.763L114.518 159.532H115.731C116.481 159.533 116.983 159.921 117.038 160.549ZM116.382 160.549C116.354 160.241 116.138 160.061 115.742 160.061H115.214L115.298 161.033H115.827C116.223 161.034 116.408 160.853 116.382 160.549Z" fill="#01579B"/>
<path d="M119.386 161.105L119.494 162.333H118.91L118.886 162.065C118.786 162.261 118.572 162.365 118.256 162.365C117.751 162.365 117.426 162.085 117.394 161.713C117.36 161.333 117.606 161.069 118.262 161.069H118.758C118.735 160.801 118.561 160.645 118.225 160.645C117.997 160.645 117.767 160.721 117.622 160.845L117.359 160.409C117.581 160.241 117.922 160.149 118.266 160.149C118.922 160.149 119.329 160.453 119.386 161.105ZM118.81 161.653L118.79 161.433H118.362C118.07 161.433 117.986 161.541 117.999 161.685C118.013 161.841 118.154 161.945 118.374 161.945C118.583 161.946 118.755 161.849 118.81 161.653Z" fill="#01579B"/>
<path d="M119.83 162.134L119.999 161.686C120.202 161.81 120.502 161.894 120.766 161.894C121.054 161.894 121.156 161.818 121.146 161.698C121.115 161.346 119.845 161.706 119.77 160.846C119.734 160.438 120.077 160.15 120.706 160.15C121.002 160.15 121.337 160.218 121.551 160.338L121.382 160.782C121.16 160.662 120.944 160.622 120.747 160.622C120.467 160.622 120.355 160.71 120.365 160.822C120.397 161.19 121.666 160.834 121.741 161.682C121.776 162.082 121.429 162.366 120.784 162.366C120.419 162.365 120.042 162.265 119.83 162.134Z" fill="#01579B"/>
<path d="M121.954 162.134L122.123 161.686C122.326 161.81 122.626 161.894 122.89 161.894C123.178 161.894 123.28 161.818 123.27 161.698C123.239 161.346 121.969 161.706 121.894 160.846C121.858 160.438 122.201 160.15 122.83 160.15C123.126 160.15 123.46 160.218 123.674 160.338L123.505 160.782C123.282 160.662 123.066 160.622 122.87 160.622C122.59 160.622 122.478 160.71 122.487 160.822C122.519 161.19 123.79 160.834 123.864 161.682C123.899 162.082 123.551 162.366 122.907 162.366C122.543 162.365 122.166 162.265 121.954 162.134Z" fill="#01579B"/>
<path d="M127.534 160.181L126.942 162.333H126.342L125.74 160.997L125.356 162.333H124.755L123.79 160.181H124.378L125.014 161.637L125.416 160.181H125.945L126.585 161.637L126.982 160.181H127.534Z" fill="#01579B"/>
<path d="M127.698 161.257C127.641 160.609 128.101 160.149 128.786 160.149C129.47 160.149 130.007 160.609 130.064 161.257C130.121 161.906 129.665 162.365 128.98 162.365C128.295 162.365 127.754 161.906 127.698 161.257ZM129.431 161.257C129.398 160.885 129.143 160.661 128.83 160.661C128.518 160.661 128.298 160.885 128.33 161.257C128.362 161.629 128.622 161.853 128.934 161.853C129.247 161.853 129.464 161.629 129.431 161.257Z" fill="#01579B"/>
<path d="M131.718 160.149L131.768 160.725C131.715 160.721 131.675 160.717 131.627 160.717C131.282 160.717 131.071 160.905 131.107 161.318L131.196 162.334H130.571L130.383 160.182H130.98L131.005 160.466C131.138 160.257 131.386 160.149 131.718 160.149Z" fill="#01579B"/>
<path d="M134.194 159.365L134.454 162.334H133.858L133.836 162.086C133.696 162.274 133.476 162.366 133.188 162.366C132.579 162.366 132.073 161.934 132.014 161.258C131.954 160.582 132.386 160.15 132.994 160.15C133.258 160.15 133.49 160.234 133.662 160.41L133.57 159.365H134.194ZM133.747 161.257C133.714 160.885 133.455 160.661 133.146 160.661C132.834 160.661 132.614 160.885 132.646 161.257C132.678 161.629 132.938 161.853 133.25 161.853C133.559 161.853 133.78 161.629 133.747 161.257Z" fill="#01579B"/>
<path d="M226.578 173.227H210.789C207.8 173.227 205.165 170.804 204.903 167.815C204.642 164.827 206.853 162.403 209.842 162.403H225.631C228.62 162.403 231.255 164.827 231.517 167.815C231.779 170.804 229.568 173.227 226.578 173.227Z" fill="#01579B"/>
<path d="M213.159 168.98L213.337 168.492C213.588 168.664 213.951 168.784 214.287 168.784C214.671 168.784 214.817 168.656 214.802 168.484C214.756 167.96 213.158 168.32 213.066 167.28C213.025 166.804 213.374 166.408 214.171 166.408C214.523 166.408 214.891 166.492 215.166 166.656L215.009 167.148C214.736 167 214.461 166.928 214.213 166.928C213.829 166.928 213.694 167.072 213.709 167.248C213.754 167.764 215.352 167.408 215.442 168.436C215.483 168.904 215.13 169.304 214.33 169.304C213.885 169.304 213.424 169.172 213.159 168.98Z" fill="white"/>
<path d="M217.71 168.028L217.818 169.256H217.234L217.21 168.988C217.111 169.184 216.896 169.288 216.579 169.288C216.075 169.288 215.75 169.008 215.718 168.636C215.684 168.256 215.93 167.992 216.586 167.992H217.083C217.06 167.724 216.886 167.568 216.55 167.568C216.322 167.568 216.092 167.644 215.946 167.768L215.684 167.332C215.906 167.164 216.246 167.072 216.59 167.072C217.246 167.071 217.654 167.376 217.71 168.028ZM217.134 168.576L217.114 168.356H216.686C216.394 168.356 216.311 168.464 216.323 168.608C216.337 168.764 216.478 168.868 216.698 168.868C216.907 168.868 217.078 168.772 217.134 168.576Z" fill="white"/>
<path d="M220.29 167.104L219.57 169.256H218.925L217.831 167.104H218.476L219.201 168.568L219.69 167.104H220.29Z" fill="white"/>
<path d="M222.691 168.356H221.062C221.145 168.625 221.387 168.788 221.716 168.788C221.944 168.788 222.102 168.72 222.238 168.58L222.602 168.941C222.422 169.169 222.132 169.289 221.743 169.289C220.998 169.289 220.473 168.821 220.417 168.181C220.361 167.537 220.813 167.073 221.469 167.073C222.101 167.073 222.627 167.497 222.687 168.189C222.693 168.236 222.69 168.304 222.691 168.356ZM221.022 167.992H222.082C222.014 167.72 221.795 167.544 221.514 167.544C221.23 167.544 221.042 167.716 221.022 167.992Z" fill="white"/>
<path d="M256.614 173.227H240.825C237.836 173.227 235.201 170.804 234.939 167.815C234.678 164.827 236.889 162.403 239.878 162.403H255.667C258.656 162.403 261.291 164.827 261.553 167.815C261.814 170.804 259.603 173.227 256.614 173.227Z" fill="#01579B"/>
<path d="M238.869 167.856C238.794 167.012 239.39 166.407 240.263 166.407C240.747 166.407 241.167 166.583 241.46 166.904L241.077 167.288C240.87 167.072 240.624 166.96 240.344 166.96C239.819 166.96 239.479 167.327 239.526 167.856C239.572 168.384 239.976 168.753 240.501 168.753C240.781 168.753 241.007 168.641 241.177 168.421L241.627 168.805C241.391 169.129 241.002 169.305 240.514 169.305C239.643 169.304 238.942 168.7 238.869 167.856Z" fill="white"/>
<path d="M241.724 168.18C241.667 167.532 242.127 167.072 242.812 167.072C243.497 167.072 244.034 167.532 244.09 168.18C244.147 168.829 243.691 169.288 243.006 169.288C242.322 169.288 241.781 168.828 241.724 168.18ZM243.458 168.18C243.426 167.808 243.17 167.584 242.858 167.584C242.545 167.584 242.325 167.808 242.358 168.18C242.39 168.552 242.65 168.776 242.962 168.776C243.274 168.776 243.49 168.552 243.458 168.18Z" fill="white"/>
<path d="M246.694 168.024L246.802 169.256H246.177L246.078 168.12C246.047 167.772 245.873 167.612 245.597 167.612C245.297 167.612 245.097 167.796 245.131 168.192L245.224 169.257H244.599L244.411 167.105H245.008L245.03 167.356C245.182 167.172 245.426 167.072 245.718 167.072C246.226 167.071 246.636 167.368 246.694 168.024Z" fill="white"/>
<path d="M248.743 169.152C248.623 169.244 248.438 169.287 248.246 169.287C247.738 169.287 247.419 169.027 247.374 168.515L247.297 167.631H246.965L246.923 167.151H247.255L247.209 166.627H247.834L247.88 167.151H248.416L248.458 167.631H247.921L247.998 168.507C248.014 168.691 248.122 168.791 248.29 168.791C248.382 168.791 248.472 168.763 248.536 168.711L248.743 169.152Z" fill="white"/>
<path d="M248.782 166.455C248.765 166.259 248.907 166.107 249.14 166.107C249.372 166.107 249.541 166.251 249.558 166.443C249.576 166.651 249.433 166.804 249.201 166.804C248.969 166.804 248.799 166.651 248.782 166.455ZM248.914 167.104H249.539L249.727 169.256H249.102L248.914 167.104Z" fill="white"/>
<path d="M252.402 168.024L252.51 169.256H251.885L251.786 168.12C251.755 167.772 251.581 167.612 251.305 167.612C251.005 167.612 250.805 167.796 250.839 168.192L250.932 169.257H250.307L250.119 167.105H250.716L250.738 167.356C250.89 167.172 251.134 167.072 251.426 167.072C251.934 167.071 252.344 167.368 252.402 168.024Z" fill="white"/>
<path d="M255.053 167.104L255.241 169.256H254.648L254.626 169C254.478 169.188 254.246 169.288 253.982 169.288C253.442 169.288 253.034 168.984 252.977 168.32L252.87 167.104H253.495L253.594 168.228C253.625 168.588 253.799 168.748 254.075 168.748C254.363 168.748 254.555 168.564 254.521 168.168L254.428 167.104H255.053Z" fill="white"/>
<path d="M257.838 168.356H256.209C256.292 168.625 256.534 168.788 256.863 168.788C257.091 168.788 257.25 168.72 257.386 168.58L257.749 168.941C257.569 169.169 257.279 169.289 256.89 169.289C256.146 169.289 255.62 168.821 255.564 168.181C255.508 167.537 255.96 167.073 256.616 167.073C257.248 167.073 257.774 167.497 257.834 168.189C257.839 168.236 257.838 168.304 257.838 168.356ZM256.169 167.992H257.23C257.162 167.72 256.942 167.544 256.662 167.544C256.377 167.544 256.189 167.716 256.169 167.992Z" fill="white"/>
<path d="M193.641 143.874C193.579 143.173 194.184 142.672 195.058 142.672C195.542 142.672 195.958 142.818 196.246 143.084L195.858 143.403C195.654 143.223 195.409 143.13 195.129 143.13C194.604 143.13 194.259 143.435 194.297 143.874C194.335 144.312 194.734 144.618 195.258 144.618C195.538 144.618 195.766 144.525 195.939 144.343L196.383 144.661C196.142 144.93 195.75 145.076 195.262 145.076C194.394 145.075 193.702 144.574 193.641 143.874Z" fill="#01579B"/>
<path d="M196.492 144.142C196.445 143.605 196.912 143.223 197.597 143.223C198.282 143.223 198.811 143.606 198.858 144.142C198.906 144.68 198.442 145.062 197.758 145.062C197.074 145.062 196.539 144.68 196.492 144.142ZM198.226 144.142C198.198 143.834 197.946 143.648 197.634 143.648C197.321 143.648 197.098 143.834 197.125 144.142C197.152 144.451 197.408 144.638 197.721 144.638C198.034 144.637 198.253 144.451 198.226 144.142Z" fill="#01579B"/>
<path d="M201.464 144.013L201.554 145.035H200.929L200.846 144.092C200.821 143.803 200.65 143.67 200.373 143.67C200.073 143.67 199.87 143.823 199.898 144.152L199.976 145.035H199.351L199.195 143.249H199.792L199.81 143.458C199.966 143.306 200.21 143.222 200.502 143.222C201.01 143.222 201.416 143.468 201.464 144.013Z" fill="#01579B"/>
<path d="M203.497 144.949C203.375 145.025 203.19 145.062 202.998 145.062C202.489 145.062 202.174 144.846 202.137 144.422L202.073 143.688H201.74L201.706 143.29H202.038L202 142.854H202.624L202.662 143.29H203.198L203.233 143.688H202.697L202.761 144.415C202.774 144.567 202.882 144.651 203.05 144.651C203.142 144.651 203.232 144.627 203.296 144.584L203.497 144.949Z" fill="#01579B"/>
<path d="M205.672 144.016L205.761 145.035H205.176L205.157 144.813C205.055 144.975 204.838 145.062 204.522 145.062C204.018 145.062 203.697 144.83 203.67 144.521C203.642 144.205 203.892 143.986 204.549 143.986H205.046C205.026 143.763 204.854 143.634 204.518 143.634C204.29 143.634 204.059 143.697 203.912 143.8L203.656 143.438C203.88 143.298 204.222 143.222 204.566 143.222C205.222 143.222 205.624 143.475 205.672 144.016ZM205.087 144.471L205.071 144.288H204.642C204.35 144.288 204.266 144.378 204.276 144.498C204.287 144.627 204.427 144.714 204.647 144.714C204.855 144.714 205.029 144.634 205.087 144.471Z" fill="#01579B"/>
<path d="M206.108 144.142C206.061 143.605 206.528 143.223 207.229 143.223C207.682 143.223 208.052 143.386 208.234 143.678L207.768 143.894C207.637 143.726 207.458 143.649 207.262 143.649C206.946 143.649 206.714 143.832 206.741 144.143C206.768 144.455 207.033 144.638 207.349 144.638C207.545 144.638 207.71 144.566 207.812 144.393L208.315 144.612C208.184 144.898 207.842 145.063 207.39 145.063C206.69 145.062 206.155 144.68 206.108 144.142Z" fill="#01579B"/>
<path d="M210.125 144.949C210.003 145.025 209.818 145.062 209.626 145.062C209.117 145.062 208.802 144.846 208.765 144.422L208.7 143.688H208.367L208.333 143.29H208.665L208.626 142.854H209.251L209.289 143.29H209.825L209.859 143.688H209.323L209.387 144.415C209.401 144.567 209.508 144.651 209.676 144.651C209.768 144.651 209.858 144.627 209.922 144.584L210.125 144.949Z" fill="#01579B"/>
<path d="M214.026 142.712L214.229 145.036H213.697L212.176 143.625L212.299 145.036H211.658L211.455 142.712H211.992L213.509 144.123L213.385 142.712H214.026Z" fill="#01579B"/>
<path d="M216.86 143.249L217.016 145.035H216.424L216.406 144.823C216.254 144.979 216.022 145.061 215.758 145.061C215.217 145.061 214.814 144.809 214.766 144.258L214.678 143.248H215.303L215.385 144.181C215.411 144.48 215.582 144.613 215.859 144.613C216.147 144.613 216.342 144.46 216.314 144.131L216.236 143.247H216.86V143.249Z" fill="#01579B"/>
<path d="M221.145 144.013L221.234 145.035H220.61L220.527 144.092C220.502 143.803 220.334 143.671 220.082 143.671C219.802 143.671 219.618 143.82 219.646 144.139L219.725 145.035H219.1L219.018 144.091C218.992 143.803 218.833 143.67 218.572 143.67C218.295 143.67 218.113 143.819 218.14 144.138L218.218 145.034H217.594L217.438 143.247H218.034L218.052 143.453C218.199 143.301 218.432 143.221 218.709 143.221C219.009 143.221 219.274 143.318 219.443 143.514C219.599 143.331 219.87 143.221 220.194 143.221C220.707 143.223 221.097 143.468 221.145 144.013Z" fill="#01579B"/>
<path d="M224.058 144.142C224.108 144.704 223.67 145.062 223.066 145.062C222.778 145.062 222.539 144.986 222.369 144.83L222.386 145.035H221.79L221.574 142.572H222.198L222.274 143.438C222.422 143.293 222.636 143.222 222.905 143.222C223.51 143.222 224.01 143.582 224.058 144.142ZM223.426 144.142C223.399 143.834 223.146 143.648 222.834 143.648C222.522 143.648 222.302 143.834 222.329 144.142C222.356 144.451 222.609 144.638 222.921 144.638C223.234 144.637 223.454 144.451 223.426 144.142Z" fill="#01579B"/>
<path d="M226.583 144.288H224.954C225.034 144.51 225.273 144.647 225.602 144.647C225.83 144.647 225.989 144.59 226.126 144.474L226.485 144.773C226.302 144.962 226.01 145.062 225.622 145.062C224.877 145.062 224.358 144.674 224.312 144.142C224.265 143.609 224.724 143.223 225.381 143.223C226.014 143.223 226.533 143.575 226.583 144.15C226.586 144.189 226.583 144.246 226.583 144.288ZM224.919 143.986H225.98C225.916 143.761 225.699 143.615 225.419 143.615C225.135 143.615 224.943 143.757 224.919 143.986Z" fill="#01579B"/>
<path d="M228.254 143.222L228.295 143.701C228.242 143.698 228.202 143.694 228.154 143.694C227.81 143.694 227.595 143.85 227.625 144.192L227.698 145.035H227.074L226.918 143.249H227.514L227.535 143.485C227.673 143.313 227.921 143.222 228.254 143.222Z" fill="#01579B"/>
<path d="M111.246 124.635L111.43 124.231C111.679 124.373 112.04 124.473 112.376 124.473C112.76 124.473 112.908 124.367 112.895 124.224C112.857 123.789 111.254 124.088 111.178 123.225C111.143 122.83 111.499 122.501 112.296 122.501C112.648 122.501 113.014 122.571 113.287 122.707L113.122 123.115C112.852 122.992 112.578 122.932 112.33 122.932C111.946 122.932 111.808 123.051 111.821 123.198C111.858 123.626 113.462 123.331 113.537 124.183C113.57 124.571 113.211 124.903 112.41 124.903C111.966 124.904 111.508 124.795 111.246 124.635Z" fill="#01579B"/>
<path d="M115.375 124.779C115.254 124.855 115.069 124.891 114.876 124.891C114.367 124.891 114.053 124.675 114.015 124.251L113.95 123.516H113.618L113.583 123.118H113.915L113.878 122.683H114.502L114.54 123.118H115.077L115.111 123.516H114.575L114.639 124.243C114.653 124.396 114.76 124.479 114.928 124.479C115.02 124.479 115.11 124.455 115.174 124.412L115.375 124.779Z" fill="#01579B"/>
<path d="M117.55 123.846L117.639 124.865H117.055L117.035 124.643C116.934 124.806 116.717 124.892 116.4 124.892C115.896 124.892 115.575 124.659 115.548 124.351C115.52 124.035 115.77 123.817 116.426 123.817H116.923C116.904 123.595 116.732 123.465 116.396 123.465C116.168 123.465 115.937 123.528 115.79 123.631L115.534 123.269C115.758 123.13 116.101 123.053 116.445 123.053C117.1 123.052 117.503 123.304 117.55 123.846ZM116.966 124.301L116.95 124.118H116.521C116.229 124.118 116.144 124.207 116.155 124.327C116.166 124.457 116.306 124.543 116.526 124.543C116.734 124.543 116.907 124.463 116.966 124.301Z" fill="#01579B"/>
<path d="M119.583 124.779C119.462 124.855 119.277 124.891 119.084 124.891C118.575 124.891 118.261 124.675 118.223 124.251L118.158 123.516H117.826L117.791 123.118H118.124L118.086 122.683H118.711L118.749 123.118H119.285L119.32 123.516H118.784L118.848 124.243C118.862 124.396 118.969 124.479 119.137 124.479C119.229 124.479 119.319 124.455 119.383 124.412L119.583 124.779Z" fill="#01579B"/>
<path d="M121.906 124.118H120.277C120.357 124.34 120.596 124.476 120.925 124.476C121.153 124.476 121.312 124.42 121.45 124.303L121.808 124.603C121.625 124.791 121.333 124.891 120.945 124.891C120.2 124.891 119.682 124.503 119.635 123.972C119.589 123.438 120.047 123.052 120.704 123.052C121.337 123.052 121.856 123.404 121.906 123.979C121.909 124.019 121.906 124.075 121.906 124.118ZM120.242 123.816H121.302C121.238 123.591 121.022 123.444 120.742 123.444C120.458 123.444 120.266 123.587 120.242 123.816Z" fill="#01579B"/>
<path d="M188.967 88.436H189.616L189.815 90.7088H191.221L191.267 91.2368H189.214L188.967 88.436Z" fill="#01579B"/>
<path d="M193.406 90.0087L193.514 91.2367H192.929L192.906 90.9687C192.806 91.1647 192.591 91.2687 192.275 91.2687C191.77 91.2687 191.446 90.9887 191.413 90.6167C191.379 90.2367 191.625 89.9727 192.282 89.9727H192.778C192.755 89.7047 192.582 89.5487 192.245 89.5487C192.017 89.5487 191.787 89.6247 191.642 89.7487L191.379 89.3127C191.601 89.1447 191.942 89.0527 192.286 89.0527C192.942 89.0519 193.35 89.3559 193.406 90.0087ZM192.83 90.5559L192.81 90.3359H192.382C192.09 90.3359 192.006 90.4439 192.019 90.5879C192.033 90.7439 192.174 90.8479 192.394 90.8479C192.603 90.8487 192.775 90.7519 192.83 90.5559Z" fill="#01579B"/>
<path d="M193.85 91.036L194.019 90.588C194.222 90.712 194.522 90.796 194.786 90.796C195.074 90.796 195.176 90.72 195.166 90.6C195.135 90.248 193.865 90.608 193.79 89.748C193.754 89.34 194.097 89.052 194.726 89.052C195.022 89.052 195.357 89.12 195.571 89.24L195.402 89.684C195.179 89.564 194.963 89.524 194.767 89.524C194.486 89.524 194.374 89.612 194.384 89.724C194.417 90.092 195.686 89.736 195.761 90.584C195.796 90.984 195.448 91.268 194.803 91.268C194.438 91.268 194.062 91.168 193.85 91.036Z" fill="#01579B"/>
<path d="M197.58 91.133C197.46 91.225 197.275 91.2682 197.083 91.2682C196.574 91.2682 196.256 91.0082 196.211 90.4962L196.134 89.6122H195.801L195.759 89.1322H196.091L196.045 88.6082H196.67L196.716 89.1322H197.252L197.294 89.6122H196.758L196.834 90.4882C196.851 90.6722 196.959 90.7721 197.128 90.7721C197.22 90.7721 197.31 90.7442 197.373 90.6922L197.58 91.133Z" fill="#01579B"/>
<path d="M201.441 88.436L201.686 91.2368H201.153L199.606 89.536L199.755 91.2368H199.114L198.87 88.436H199.406L200.948 90.1368L200.799 88.436H201.441Z" fill="#01579B"/>
<path d="M204.102 90.0087L204.21 91.2367H203.626L203.602 90.9687C203.503 91.1647 203.288 91.2687 202.971 91.2687C202.467 91.2687 202.142 90.9887 202.11 90.6167C202.076 90.2367 202.322 89.9727 202.978 89.9727H203.475C203.452 89.7047 203.278 89.5487 202.942 89.5487C202.714 89.5487 202.484 89.6247 202.338 89.7487L202.076 89.3127C202.298 89.1447 202.638 89.0527 202.982 89.0527C203.638 89.0519 204.045 89.3559 204.102 90.0087ZM203.526 90.5559L203.506 90.3359H203.078C202.786 90.3359 202.703 90.4439 202.715 90.5879C202.729 90.7439 202.87 90.8479 203.09 90.8479C203.298 90.8487 203.47 90.7519 203.526 90.5559Z" fill="#01579B"/>
<path d="M208.303 90.004L208.411 91.236H207.786L207.687 90.1C207.657 89.752 207.487 89.592 207.234 89.592C206.954 89.592 206.774 89.772 206.807 90.156L206.902 91.236H206.277L206.178 90.1C206.147 89.752 205.985 89.592 205.725 89.592C205.448 89.592 205.268 89.772 205.302 90.156L205.396 91.236H204.771L204.583 89.084H205.18L205.202 89.332C205.346 89.148 205.578 89.052 205.854 89.052C206.154 89.052 206.42 89.1688 206.594 89.404C206.746 89.1848 207.015 89.052 207.339 89.052C207.852 89.052 208.246 89.348 208.303 90.004Z" fill="#01579B"/>
<path d="M211.011 90.3359H209.382C209.466 90.6039 209.708 90.7679 210.036 90.7679C210.264 90.7679 210.423 90.6999 210.559 90.5599L210.923 90.9207C210.743 91.1487 210.453 91.2687 210.064 91.2687C209.319 91.2687 208.794 90.8007 208.738 90.1607C208.682 89.5167 209.134 89.0527 209.79 89.0527C210.423 89.0527 210.948 89.4767 211.008 90.1695C211.013 90.2159 211.011 90.2839 211.011 90.3359ZM209.342 89.9719H210.403C210.335 89.6999 210.115 89.5239 209.835 89.5239C209.551 89.5239 209.362 89.6967 209.342 89.9719Z" fill="#01579B"/>
<path d="M184.137 100.129H108.959L108.394 93.6658H183.571L184.137 100.129Z" fill="white"/>
<path d="M187.066 133.607H111.888L111.322 127.144H186.5L187.066 133.607Z" fill="white"/>
<path d="M188.778 153.178H113.6L113.035 146.715H188.213L188.778 153.178Z" fill="white"/>
<path d="M190.341 171.047H115.164L114.598 164.584H189.776L190.341 171.047Z" fill="white"/>
<path d="M269.621 153.178H194.443L193.878 146.715H269.055L269.621 153.178Z" fill="white"/>
<path d="M266.377 116.098H110.356L109.79 109.634H265.811L266.377 116.098Z" fill="white"/>
<path d="M264.98 100.129H189.802L189.237 93.6658H264.414L264.98 100.129Z" fill="white"/>
<path d="M211.574 152.492H205.779L205.313 147.163H211.108L211.574 152.492Z" fill="#E0E0E0"/>
<path d="M210.227 148.919L208.573 150.973L206.56 148.919H210.227Z" fill="#263238"/>
<path d="M197.873 149.946H197.176L197.235 150.626H196.718L196.659 149.946H195.966L195.924 149.458H196.616L196.557 148.778H197.073L197.132 149.458H197.829L197.873 149.946Z" fill="#263238"/>
<path d="M200.287 150.246C200.329 150.718 200.002 151.15 199.206 151.15C198.813 151.15 198.399 151.042 198.11 150.85L198.318 150.354C198.545 150.514 198.85 150.606 199.142 150.606C199.466 150.606 199.654 150.475 199.634 150.246C199.616 150.034 199.449 149.902 199.08 149.902H198.784L198.746 149.474L199.266 148.822H198.073L198.027 148.302H199.989L200.026 148.722L199.456 149.442C199.968 149.522 200.251 149.834 200.287 150.246Z" fill="#263238"/>
<path d="M202.688 150.574L202.735 151.102H200.617L200.58 150.682L201.572 149.662C201.799 149.426 201.831 149.282 201.819 149.146C201.8 148.926 201.636 148.798 201.34 148.798C201.1 148.798 200.903 148.89 200.784 149.078L200.285 148.774C200.474 148.458 200.848 148.254 201.353 148.254C201.978 148.254 202.422 148.574 202.467 149.082C202.491 149.354 202.436 149.602 202.075 149.966L201.484 150.575L202.688 150.574Z" fill="#263238"/>
<path d="M253.233 151.133H215.022L214.829 148.919H253.039L253.233 151.133Z" fill="#263238"/>
<path d="M153.621 151.133H115.411L115.217 148.919H153.427L153.621 151.133Z" fill="#263238"/>
<path d="M131.181 131.482H113.692L113.498 129.269H130.987L131.181 131.482Z" fill="#263238"/>
<path d="M128.252 98.0041H110.762L110.569 95.7905H128.058L128.252 98.0041Z" fill="#263238"/>
<path d="M209.437 98.0041H191.948L191.754 95.7905H209.243L209.437 98.0041Z" fill="#263238"/>
<path d="M249.982 113.972H112.16L111.966 111.759H249.788L249.982 113.972Z" fill="#263238"/>
<path d="M119.232 167.967L119.872 168.298L119.638 168.757L118.99 168.393L119.06 169.071H118.533L118.478 168.387L117.894 168.757L117.585 168.298L118.167 167.967L117.527 167.631L117.756 167.171L118.405 167.54L118.339 166.857H118.866L118.915 167.54L119.499 167.171L119.814 167.631L119.232 167.967Z" fill="#263238"/>
<path d="M123.247 167.967L123.887 168.298L123.653 168.757L123.005 168.393L123.075 169.071H122.548L122.494 168.387L121.91 168.757L121.6 168.298L122.182 167.967L121.542 167.631L121.77 167.171L122.419 167.54L122.354 166.857H122.881L122.929 167.54L123.513 167.171L123.827 167.631L123.247 167.967Z" fill="#263238"/>
<path d="M127.262 167.967L127.902 168.298L127.668 168.757L127.02 168.393L127.09 169.071H126.563L126.509 168.387L125.925 168.757L125.615 168.298L126.198 167.967L125.558 167.631L125.786 167.171L126.435 167.54L126.37 166.857H126.897L126.946 167.54L127.53 167.171L127.845 167.631L127.262 167.967Z" fill="#263238"/>
<path d="M131.278 167.967L131.918 168.298L131.683 168.757L131.035 168.393L131.106 169.071H130.578L130.524 168.387L129.94 168.757L129.63 168.298L130.212 167.967L129.572 167.631L129.801 167.171L130.45 167.54L130.384 166.857H130.911L130.96 167.54L131.544 167.171L131.858 167.631L131.278 167.967Z" fill="#263238"/>
<path d="M135.293 167.967L135.933 168.298L135.698 168.757L135.05 168.393L135.121 169.071H134.594L134.539 168.387L133.955 168.757L133.646 168.298L134.227 167.967L133.587 167.631L133.816 167.171L134.465 167.54L134.4 166.857H134.927L134.976 167.54L135.56 167.171L135.875 167.631L135.293 167.967Z" fill="#263238"/>
<path d="M139.308 167.967L139.948 168.298L139.714 168.757L139.066 168.393L139.136 169.071H138.609L138.554 168.387L137.97 168.757L137.661 168.298L138.242 167.967L137.602 167.631L137.831 167.171L138.48 167.54L138.414 166.857H138.942L138.99 167.54L139.574 167.171L139.889 167.631L139.308 167.967Z" fill="#263238"/>
<path d="M143.323 167.967L143.963 168.298L143.729 168.757L143.081 168.393L143.151 169.071H142.624L142.57 168.387L141.986 168.757L141.676 168.298L142.258 167.967L141.618 167.631L141.846 167.171L142.495 167.54L142.43 166.857H142.957L143.006 167.54L143.59 167.171L143.905 167.631L143.323 167.967Z" fill="#263238"/>
<path opacity="0.1" d="M106.385 180.839H279.558L269.954 71.0601H96.78L106.385 180.839Z" fill="white"/>
<path opacity="0.1" d="M134.146 62.8633L167.972 189.374H156.594L123.142 62.8633H134.146Z" fill="white"/>
<path opacity="0.1" d="M116.586 62.8633L150.412 189.374H127.842L94.3896 62.8633H116.586Z" fill="white"/>
<path d="M116.146 59.4349L111.215 59.4763L111.224 60.4971L116.155 60.4557L116.146 59.4349Z" fill="#01579B"/>
<path d="M134.819 59.2788L120.516 59.3989L120.524 60.4197L134.827 60.2996L134.819 59.2788Z" fill="#01579B"/>
<path opacity="0.5" d="M287.866 128.48C288.121 131.394 285.966 133.755 283.052 133.755C280.138 133.755 277.57 131.394 277.315 128.48C277.06 125.566 279.215 123.205 282.129 123.205C285.042 123.205 287.61 125.566 287.866 128.48Z" fill="black"/>
<path opacity="0.5" d="M100.114 147.166C99.5528 147.166 99.0576 146.711 99.0088 146.15L95.504 106.089C95.4552 105.528 95.8696 105.073 96.4312 105.073C96.992 105.073 97.4872 105.527 97.536 106.089L101.041 146.15C101.09 146.71 100.674 147.166 100.114 147.166Z" fill="black"/>
<path d="M113.12 328.011H96.4496L94.5976 324.514C90.0976 316.017 87.6736 306.574 87.5232 296.96L87.5104 296.121H122.058C122.058 306.413 119.45 316.537 114.478 325.548L113.12 328.011Z" fill="#01579B"/>
<path opacity="0.7" d="M113.12 328.011H96.4496L94.5976 324.514C90.0976 316.017 87.6736 306.574 87.5232 296.96L87.5104 296.121H122.058C122.058 306.413 119.45 316.537 114.478 325.548L113.12 328.011Z" fill="white"/>
<path d="M77.0984 296.807C80.232 298.917 83.884 300.025 87.528 299.97C87.9664 299.964 88.4184 299.937 88.8128 299.718C89.2064 299.501 89.5296 299.044 89.4984 298.548C89.4624 297.979 89.0072 297.578 88.5872 297.266C86.2408 295.522 83.688 294.139 81.0216 293.153C79.6728 292.653 78.2944 292.256 76.8992 291.965C75.7792 291.733 74.5824 291.186 73.4504 291.197C73.2344 293.638 75.456 295.701 77.0984 296.807Z" fill="#01579B"/>
<path d="M121.546 282.775C123.109 280.77 125.358 279.473 127.705 279.222C127.842 279.208 127.991 279.2 128.103 279.289C128.254 279.409 128.275 279.648 128.279 279.856C128.337 283.002 127.381 286.159 125.63 288.6C124.823 289.725 123.817 290.725 122.598 291.163C121.717 291.48 120.665 291.477 119.826 290.997C118.984 290.517 119.138 289.829 119.224 288.882C119.429 286.632 120.222 284.473 121.546 282.775Z" fill="#01579B"/>
<path opacity="0.2" d="M121.546 282.775C123.109 280.77 125.358 279.473 127.705 279.222C127.842 279.208 127.991 279.2 128.103 279.289C128.254 279.409 128.275 279.648 128.279 279.856C128.337 283.002 127.381 286.159 125.63 288.6C124.823 289.725 123.817 290.725 122.598 291.163C121.717 291.48 120.665 291.477 119.826 290.997C118.984 290.517 119.138 289.829 119.224 288.882C119.429 286.632 120.222 284.473 121.546 282.775Z" fill="black"/>
<path d="M106.467 284.205C107.625 282.137 108.474 279.477 108.511 276.661C108.543 274.3 108.005 271.995 107.233 270.008C106.461 268.021 105.461 266.308 104.467 264.61C104.145 269.726 104.051 274.882 104.188 280.021C104.217 281.112 104.263 282.243 104.578 283.204C104.894 284.165 105.555 284.904 106.2 284.665L106.467 284.205Z" fill="#01579B"/>
<path d="M110.938 268.561C108.758 271.786 107.387 276.463 107.209 281.29C107.146 282.995 107.237 284.775 107.739 286.268C108.242 287.761 109.23 288.898 110.26 288.742C111.335 288.58 112.167 287.134 112.774 285.658C113.783 283.206 115.009 279.709 114.434 276.687C113.818 273.454 112.602 270.558 110.938 268.561Z" fill="#01579B"/>
<path opacity="0.1" d="M110.938 268.561C108.758 271.786 107.387 276.463 107.209 281.29C107.146 282.995 107.237 284.775 107.739 286.268C108.242 287.761 109.23 288.898 110.26 288.742C111.335 288.58 112.167 287.134 112.774 285.658C113.783 283.206 115.009 279.709 114.434 276.687C113.818 273.454 112.602 270.558 110.938 268.561Z" fill="black"/>
<path d="M117.556 286.551C119.335 284.893 120.062 282.117 119.982 279.505C119.902 276.894 119.125 274.384 118.356 271.921C116.622 274.299 115.207 276.979 114.178 279.837C113.784 280.933 113.442 282.077 113.419 283.259C113.396 284.441 113.73 285.68 114.506 286.469C115.283 287.257 116.543 287.469 117.384 286.77C117.285 286.829 117.186 286.888 117.086 286.947L117.556 286.551Z" fill="#01579B"/>
<g opacity="0.2">
<path d="M117.556 286.551C119.335 284.893 120.062 282.117 119.982 279.505C119.902 276.894 119.125 274.384 118.356 271.921C116.622 274.299 115.207 276.979 114.178 279.837C113.784 280.933 113.442 282.077 113.419 283.259C113.396 284.441 113.73 285.68 114.506 286.469C115.283 287.257 116.543 287.469 117.384 286.77C117.285 286.829 117.186 286.888 117.086 286.947L117.556 286.551Z" fill="black"/>
</g>
<path d="M121.614 276.306C122.058 279.53 122.494 282.834 121.95 286.039C121.405 289.244 119.68 292.386 116.982 293.517C115.86 293.987 114.416 293.992 113.663 292.937C113.157 292.227 113.106 291.206 113.334 290.33C113.562 289.454 114.03 288.688 114.49 287.939C116.643 284.44 121.128 275.958 121.585 276.314L121.614 276.306Z" fill="#01579B"/>
<path d="M121.614 276.306C122.058 279.53 122.494 282.834 121.95 286.039C121.405 289.244 119.68 292.386 116.982 293.517C115.86 293.987 114.416 293.992 113.663 292.937C113.157 292.227 113.106 291.206 113.334 290.33C113.562 289.454 114.03 288.688 114.49 287.939C116.643 284.44 121.128 275.958 121.585 276.314L121.614 276.306Z" fill="#01579B"/>
<g opacity="0.1">
<path d="M121.614 276.306C122.058 279.53 122.494 282.834 121.95 286.039C121.405 289.244 119.68 292.386 116.982 293.517C115.86 293.987 114.416 293.992 113.663 292.937C113.157 292.227 113.106 291.206 113.334 290.33C113.562 289.454 114.03 288.688 114.49 287.939C116.643 284.44 121.128 275.958 121.585 276.314L121.614 276.306Z" fill="black"/>
</g>
<path d="M113.278 280.664C114.331 282.576 115.217 284.644 115.58 286.862C115.943 289.079 115.747 291.467 114.754 293.42C113.76 295.373 111.901 296.812 109.914 296.827C108.378 296.839 106.874 295.908 106.042 294.446C105.123 292.833 105.794 291.367 106.495 289.788C108.086 286.198 110.726 283.374 113.278 280.664Z" fill="#01579B"/>
<path d="M133.079 286.627C133.63 287.522 133.609 288.751 133.239 289.758C132.87 290.766 132.198 291.589 131.499 292.338C126.747 297.427 119.993 300.011 113.496 299.224C112.955 299.158 112.344 299.019 112.064 298.49C111.755 297.906 112.034 297.11 112.508 296.694C112.982 296.278 113.597 296.142 114.183 295.998C117.51 295.183 120.69 293.717 123.595 291.71C126.508 289.697 129.97 288.306 133.079 286.627Z" fill="#01579B"/>
<path opacity="0.1" d="M133.079 286.627C133.63 287.522 133.609 288.751 133.239 289.758C132.87 290.766 132.198 291.589 131.499 292.338C126.747 297.427 119.993 300.011 113.496 299.224C112.955 299.158 112.344 299.019 112.064 298.49C111.755 297.906 112.034 297.11 112.508 296.694C112.982 296.278 113.597 296.142 114.183 295.998C117.51 295.183 120.69 293.717 123.595 291.71C126.508 289.697 129.97 288.306 133.079 286.627Z" fill="black"/>
<path d="M121.593 286.619C122.074 285.903 122.68 285.077 123.47 285.166C124.082 285.236 124.532 285.857 124.786 286.493C125.815 289.074 124.584 292.237 122.616 293.981C120.648 295.725 118.122 296.386 115.685 297.002C114.849 297.213 114.013 297.423 113.177 297.634C112.182 297.886 110.185 297.55 111.074 295.976C111.669 294.921 113.662 294.319 114.586 293.695C117.287 291.87 119.683 289.458 121.593 286.619Z" fill="#01579B"/>
<path d="M131.936 296.807C128.802 298.917 125.15 300.025 121.506 299.97C121.068 299.964 120.616 299.937 120.222 299.718C119.828 299.501 119.505 299.044 119.536 298.548C119.572 297.979 120.027 297.578 120.447 297.266C122.794 295.522 125.346 294.139 128.013 293.153C129.362 292.653 130.74 292.256 132.135 291.965C133.255 291.733 134.452 291.186 135.584 291.197C135.8 293.638 133.578 295.701 131.936 296.807Z" fill="#01579B"/>
<path d="M121.832 306.47C124.907 306.249 127.856 304.845 130.389 302.852C130.872 302.472 131.401 301.863 131.186 301.241C131.036 300.805 130.59 300.623 130.194 300.49C127.285 299.515 124.312 298.531 121.281 298.663C119.85 298.725 118.414 299.072 117.103 299.736C116.08 300.255 113.959 301.529 113.66 302.905C113.35 304.329 116.007 305.367 116.985 305.748C118.536 306.353 120.198 306.589 121.832 306.47Z" fill="#01579B"/>
<path opacity="0.1" d="M121.832 306.47C124.907 306.249 127.856 304.845 130.389 302.852C130.872 302.472 131.401 301.863 131.186 301.241C131.036 300.805 130.59 300.623 130.194 300.49C127.285 299.515 124.312 298.531 121.281 298.663C119.85 298.725 118.414 299.072 117.103 299.736C116.08 300.255 113.959 301.529 113.66 302.905C113.35 304.329 116.007 305.367 116.985 305.748C118.536 306.353 120.198 306.589 121.832 306.47Z" fill="black"/>
<path d="M109.692 298.857C112.684 298.172 115.767 298.005 118.803 298.362C119.558 298.451 120.327 298.579 120.993 298.991C121.658 299.404 122.206 300.157 122.231 301.017C122.256 301.884 121.746 302.679 121.106 303.15C120.465 303.621 119.705 303.828 118.962 304.023C116.769 304.601 114.519 305.161 112.283 304.857C110.64 304.635 108.708 303.835 107.645 302.312C106.266 300.338 108.083 299.225 109.692 298.857Z" fill="#01579B"/>
<path opacity="0.1" d="M109.692 298.857C112.684 298.172 115.767 298.005 118.803 298.362C119.558 298.451 120.327 298.579 120.993 298.991C121.658 299.404 122.206 300.157 122.231 301.017C122.256 301.884 121.746 302.679 121.106 303.15C120.465 303.621 119.705 303.828 118.962 304.023C116.769 304.601 114.519 305.161 112.283 304.857C110.64 304.635 108.708 303.835 107.645 302.312C106.266 300.338 108.083 299.225 109.692 298.857Z" fill="white"/>
<path d="M100.565 298.829C99.9848 298.387 99.4064 297.887 99.0768 297.189C98.7472 296.49 98.732 295.541 99.2168 294.969C99.9104 294.153 103.77 292.995 104.739 292.77C105.549 292.583 106.374 292.925 107.139 293.28C108.245 293.793 109.336 294.346 110.41 294.937C110.946 295.232 111.489 295.546 111.898 296.036C112.308 296.525 112.567 297.23 112.417 297.885C112.206 298.805 111.32 299.275 110.521 299.562C108.456 300.303 106.282 300.648 104.118 300.577C104.266 300.543 101.525 299.562 100.565 298.829Z" fill="#01579B"/>
<g opacity="0.1">
<path d="M100.565 298.829C99.9848 298.387 99.4064 297.887 99.0768 297.189C98.7472 296.49 98.732 295.541 99.2168 294.969C99.9104 294.153 103.77 292.995 104.739 292.77C105.549 292.583 106.374 292.925 107.139 293.28C108.245 293.793 109.336 294.346 110.41 294.937C110.946 295.232 111.489 295.546 111.898 296.036C112.308 296.525 112.567 297.23 112.417 297.885C112.206 298.805 111.32 299.275 110.521 299.562C108.456 300.303 106.282 300.648 104.118 300.577C104.266 300.543 101.525 299.562 100.565 298.829Z" fill="black"/>
</g>
<path d="M108.401 300.351C109.35 300.642 110.255 301.291 110.702 302.285C111.148 303.279 111.019 304.635 110.254 305.336C109.698 305.846 108.94 305.937 108.228 306.007C107.35 306.094 106.471 306.182 105.593 306.27C105.037 306.325 104.426 306.365 103.972 305.996C103.358 305.498 103.306 304.503 103.31 303.647C103.315 302.83 103.325 301.989 103.606 301.237C103.966 300.274 104.638 299.79 105.514 299.93C106.465 300.08 107.47 300.065 108.401 300.351Z" fill="#01579B"/>
<path d="M87.488 282.775C85.9248 280.77 83.676 279.473 81.3288 279.222C81.192 279.208 81.0424 279.2 80.9304 279.289C80.7808 279.409 80.7584 279.648 80.7544 279.856C80.6968 283.002 81.6528 286.159 83.4032 288.6C84.2104 289.725 85.2168 290.725 86.4352 291.163C87.3168 291.48 88.3688 291.477 89.208 290.997C90.0496 290.517 89.896 289.829 89.8096 288.882C89.6056 286.632 88.8128 284.473 87.488 282.775Z" fill="#01579B"/>
<path opacity="0.2" d="M87.488 282.775C85.9248 280.77 83.676 279.473 81.3288 279.222C81.192 279.208 81.0424 279.2 80.9304 279.289C80.7808 279.409 80.7584 279.648 80.7544 279.856C80.6968 283.002 81.6528 286.159 83.4032 288.6C84.2104 289.725 85.2168 290.725 86.4352 291.163C87.3168 291.48 88.3688 291.477 89.208 290.997C90.0496 290.517 89.896 289.829 89.8096 288.882C89.6056 286.632 88.8128 284.473 87.488 282.775Z" fill="black"/>
<path d="M102.566 284.205C101.409 282.137 100.56 279.477 100.522 276.661C100.491 274.3 101.029 271.995 101.801 270.008C102.573 268.021 103.573 266.308 104.566 264.61C104.889 269.726 104.982 274.882 104.846 280.021C104.817 281.112 104.77 282.243 104.455 283.204C104.14 284.165 103.478 284.904 102.834 284.665L102.566 284.205Z" fill="#01579B"/>
<path d="M98.096 268.561C100.277 271.786 101.647 276.463 101.826 281.29C101.889 282.995 101.798 284.775 101.295 286.268C100.793 287.761 99.804 288.898 98.7744 288.742C97.6992 288.58 96.8672 287.134 96.26 285.658C95.2512 283.206 94.0256 279.709 94.6 276.687C95.216 273.454 96.4328 270.558 98.096 268.561Z" fill="#01579B"/>
<path opacity="0.1" d="M98.096 268.561C100.277 271.786 101.647 276.463 101.826 281.29C101.889 282.995 101.798 284.775 101.295 286.268C100.793 287.761 99.804 288.898 98.7744 288.742C97.6992 288.58 96.8672 287.134 96.26 285.658C95.2512 283.206 94.0256 279.709 94.6 276.687C95.216 273.454 96.4328 270.558 98.096 268.561Z" fill="black"/>
<path d="M91.4785 286.551C89.6993 284.893 88.9721 282.117 89.0521 279.505C89.1321 276.894 89.9097 274.384 90.6785 271.921C92.4129 274.299 93.8273 276.979 94.8561 279.837C95.2505 280.933 95.5921 282.077 95.6153 283.259C95.6385 284.441 95.3041 285.68 94.5281 286.469C93.7513 287.257 92.4913 287.469 91.6505 286.77C91.7497 286.829 91.8489 286.888 91.9481 286.947L91.4785 286.551Z" fill="#01579B"/>
<g opacity="0.2">
<path d="M91.4785 286.551C89.6993 284.893 88.9721 282.117 89.0521 279.505C89.1321 276.894 89.9097 274.384 90.6785 271.921C92.4129 274.299 93.8273 276.979 94.8561 279.837C95.2505 280.933 95.5921 282.077 95.6153 283.259C95.6385 284.441 95.3041 285.68 94.5281 286.469C93.7513 287.257 92.4913 287.469 91.6505 286.77C91.7497 286.829 91.8489 286.888 91.9481 286.947L91.4785 286.551Z" fill="black"/>
</g>
<path d="M87.42 276.306C86.976 279.53 86.54 282.834 87.0848 286.039C87.6296 289.244 89.3544 292.386 92.052 293.517C93.1744 293.987 94.6184 293.992 95.3712 292.937C95.8776 292.227 95.928 291.206 95.7 290.33C95.472 289.454 95.004 288.688 94.5432 287.939C92.3904 284.44 87.9056 275.958 87.4488 276.314L87.42 276.306Z" fill="#01579B"/>
<path d="M87.42 276.306C86.976 279.53 86.54 282.834 87.0848 286.039C87.6296 289.244 89.3544 292.386 92.052 293.517C93.1744 293.987 94.6184 293.992 95.3712 292.937C95.8776 292.227 95.928 291.206 95.7 290.33C95.472 289.454 95.004 288.688 94.5432 287.939C92.3904 284.44 87.9056 275.958 87.4488 276.314L87.42 276.306Z" fill="#01579B"/>
<g opacity="0.1">
<path d="M87.42 276.306C86.976 279.53 86.54 282.834 87.0848 286.039C87.6296 289.244 89.3544 292.386 92.052 293.517C93.1744 293.987 94.6184 293.992 95.3712 292.937C95.8776 292.227 95.928 291.206 95.7 290.33C95.472 289.454 95.004 288.688 94.5432 287.939C92.3904 284.44 87.9056 275.958 87.4488 276.314L87.42 276.306Z" fill="black"/>
</g>
<path d="M95.7568 280.664C94.7032 282.576 93.8177 284.644 93.4545 286.862C93.0913 289.079 93.2864 291.467 94.2808 293.42C95.2744 295.373 97.1337 296.812 99.1201 296.827C100.656 296.839 102.16 295.908 102.993 294.446C103.911 292.833 103.24 291.367 102.539 289.788C100.947 286.198 98.308 283.374 95.7568 280.664Z" fill="#01579B"/>
<path d="M75.9464 286.879C75.4064 287.756 75.4272 288.962 75.7888 289.949C76.1512 290.936 76.8088 291.743 77.4944 292.477C82.152 297.466 88.7736 299.998 95.1416 299.227C95.672 299.163 96.2704 299.026 96.5456 298.508C96.848 297.936 96.576 297.154 96.1104 296.746C95.6448 296.338 95.0432 296.206 94.4688 296.065C91.208 295.266 88.0912 293.828 85.2424 291.861C82.3872 289.888 78.9936 288.524 75.9464 286.879Z" fill="#01579B"/>
<path opacity="0.1" d="M75.9464 286.879C75.4064 287.756 75.4272 288.962 75.7888 289.949C76.1512 290.936 76.8088 291.743 77.4944 292.477C82.152 297.466 88.7736 299.998 95.1416 299.227C95.672 299.163 96.2704 299.026 96.5456 298.508C96.848 297.936 96.576 297.154 96.1104 296.746C95.6448 296.338 95.0432 296.206 94.4688 296.065C91.208 295.266 88.0912 293.828 85.2424 291.861C82.3872 289.888 78.9936 288.524 75.9464 286.879Z" fill="black"/>
<path d="M86.8953 286.398C86.4225 285.695 85.8281 284.884 85.0529 284.972C84.4521 285.041 84.0105 285.65 83.7617 286.274C82.7513 288.81 83.9593 291.914 85.8913 293.626C87.8233 295.338 90.3033 295.988 92.6961 296.592C93.5169 296.799 94.3377 297.006 95.1585 297.214C96.1353 297.46 98.0961 297.131 97.2241 295.585C96.6393 294.549 94.6825 293.958 93.7761 293.346C91.1217 291.554 88.7697 289.185 86.8953 286.398Z" fill="#01579B"/>
<path d="M87.2017 306.47C84.1265 306.249 81.1777 304.845 78.6449 302.852C78.1617 302.472 77.6329 301.863 77.8473 301.241C77.9977 300.805 78.4433 300.623 78.8393 300.49C81.7489 299.515 84.7217 298.531 87.7529 298.663C89.1841 298.725 90.6201 299.072 91.9305 299.736C92.9537 300.255 95.0745 301.529 95.3737 302.905C95.6833 304.329 93.0265 305.367 92.0489 305.748C90.4985 306.353 88.8369 306.589 87.2017 306.47Z" fill="#01579B"/>
<path opacity="0.1" d="M87.2017 306.47C84.1265 306.249 81.1777 304.845 78.6449 302.852C78.1617 302.472 77.6329 301.863 77.8473 301.241C77.9977 300.805 78.4433 300.623 78.8393 300.49C81.7489 299.515 84.7217 298.531 87.7529 298.663C89.1841 298.725 90.6201 299.072 91.9305 299.736C92.9537 300.255 95.0745 301.529 95.3737 302.905C95.6833 304.329 93.0265 305.367 92.0489 305.748C90.4985 306.353 88.8369 306.589 87.2017 306.47Z" fill="black"/>
<path d="M99.3424 298.857C96.3504 298.172 93.2672 298.005 90.2312 298.362C89.4768 298.451 88.7072 298.579 88.0416 298.991C87.376 299.404 86.828 300.157 86.8032 301.017C86.7784 301.884 87.288 302.679 87.9288 303.15C88.5696 303.621 89.3296 303.828 90.0728 304.023C92.2664 304.601 94.5152 305.161 96.7512 304.857C98.3944 304.635 100.326 303.835 101.39 302.312C102.768 300.338 100.95 299.225 99.3424 298.857Z" fill="#01579B"/>
<path opacity="0.1" d="M99.3424 298.857C96.3504 298.172 93.2672 298.005 90.2312 298.362C89.4768 298.451 88.7072 298.579 88.0416 298.991C87.376 299.404 86.828 300.157 86.8032 301.017C86.7784 301.884 87.288 302.679 87.9288 303.15C88.5696 303.621 89.3296 303.828 90.0728 304.023C92.2664 304.601 94.5152 305.161 96.7512 304.857C98.3944 304.635 100.326 303.835 101.39 302.312C102.768 300.338 100.95 299.225 99.3424 298.857Z" fill="white"/>
<path d="M108.469 298.829C109.049 298.387 109.627 297.887 109.957 297.189C110.287 296.49 110.302 295.541 109.817 294.969C109.123 294.153 105.264 292.995 104.295 292.77C103.485 292.583 102.659 292.925 101.895 293.28C100.789 293.793 99.6977 294.346 98.6233 294.937C98.0881 295.232 97.5449 295.546 97.1353 296.036C96.7257 296.525 96.4665 297.23 96.6169 297.885C96.8281 298.805 97.7137 299.275 98.5129 299.562C100.578 300.303 102.752 300.648 104.916 300.577C104.767 300.543 107.51 299.562 108.469 298.829Z" fill="#01579B"/>
<g opacity="0.1">
<path d="M108.469 298.829C109.049 298.387 109.627 297.887 109.957 297.189C110.287 296.49 110.302 295.541 109.817 294.969C109.123 294.153 105.264 292.995 104.295 292.77C103.485 292.583 102.659 292.925 101.895 293.28C100.789 293.793 99.6977 294.346 98.6233 294.937C98.0881 295.232 97.5449 295.546 97.1353 296.036C96.7257 296.525 96.4665 297.23 96.6169 297.885C96.8281 298.805 97.7137 299.275 98.5129 299.562C100.578 300.303 102.752 300.648 104.916 300.577C104.767 300.543 107.51 299.562 108.469 298.829Z" fill="black"/>
</g>
<path d="M100.634 300.351C99.6849 300.642 98.7785 301.291 98.3321 302.285C97.8857 303.279 98.0145 304.635 98.7793 305.336C99.3353 305.846 100.094 305.937 100.805 306.007C101.683 306.094 102.562 306.182 103.44 306.27C103.997 306.325 104.606 306.365 105.061 305.996C105.674 305.498 105.727 304.503 105.722 303.647C105.718 302.83 105.708 301.989 105.426 301.237C105.066 300.274 104.394 299.79 103.519 299.93C102.57 300.08 101.565 300.065 100.634 300.351Z" fill="#01579B"/>
<path d="M104.979 281.486C104.817 281.36 104.655 281.25 104.519 281.198C104.575 281.175 104.63 281.164 104.675 281.17C104.706 281.17 104.736 281.181 104.767 281.198H104.771C104.802 281.21 104.827 281.233 104.852 281.262C104.878 281.29 104.903 281.319 104.923 281.359C104.943 281.388 104.959 281.417 104.969 281.457C104.974 281.464 104.979 281.475 104.979 281.486Z" fill="#01579B"/>
<path opacity="0.1" d="M104.984 281.486H104.979C104.817 281.36 104.655 281.25 104.519 281.198C104.575 281.175 104.63 281.164 104.675 281.17C104.706 281.17 104.736 281.181 104.767 281.198H104.771C104.802 281.21 104.827 281.233 104.852 281.262C104.878 281.29 104.903 281.319 104.923 281.359C104.943 281.388 104.959 281.417 104.969 281.457C104.974 281.464 104.979 281.475 104.984 281.486Z" fill="#01579B"/>
<path d="M108.267 290.436C107.938 291.322 107.518 292.19 106.904 292.858C106.296 293.53 105.471 293.996 104.619 293.967C104.584 293.967 104.554 293.967 104.518 293.962H104.513C104.483 293.967 104.447 293.967 104.411 293.967C103.56 293.996 102.739 293.53 102.127 292.858C101.519 292.19 101.098 291.322 100.763 290.436C100.333 289.262 100.034 287.986 100.201 286.726C100.388 285.34 101.133 284.11 102.055 283.166C102.299 283.166 103.069 282.269 103.312 282.085C103.332 282.074 103.353 282.056 103.378 282.039C103.398 282.016 103.423 281.999 103.454 281.976C103.616 281.844 103.839 281.648 104.057 281.482C104.159 281.407 104.259 281.338 104.351 281.28C104.376 281.269 104.407 281.251 104.431 281.24C104.462 281.222 104.492 281.211 104.518 281.2C104.655 281.252 104.817 281.361 104.979 281.488H104.983C105.277 281.706 105.571 281.977 105.718 282.086C105.966 282.27 106.731 283.168 106.979 283.168C107.902 284.111 108.647 285.342 108.829 286.728C109.002 287.986 108.703 289.262 108.267 290.436Z" fill="#01579B"/>
<path d="M104.518 281.199C104.492 281.21 104.462 281.222 104.431 281.239C104.406 281.25 104.381 281.262 104.35 281.279C104.259 281.337 104.158 281.406 104.057 281.481C104.122 281.297 104.224 281.182 104.361 281.17C104.406 281.165 104.462 281.176 104.518 281.199Z" fill="#01579B"/>
<g opacity="0.2">
<path d="M108.267 290.436C107.938 291.322 107.518 292.19 106.904 292.858C106.296 293.53 105.471 293.996 104.619 293.967C104.584 293.967 104.554 293.967 104.518 293.962H104.513C104.483 293.967 104.447 293.967 104.411 293.967C103.56 293.996 102.739 293.53 102.127 292.858C101.519 292.19 101.098 291.322 100.763 290.436C100.333 289.262 100.034 287.986 100.201 286.726C100.388 285.34 101.133 284.11 102.055 283.166C102.299 283.166 103.069 282.269 103.312 282.085C103.464 281.975 103.768 281.699 104.057 281.481C104.224 281.354 104.381 281.25 104.518 281.199C104.655 281.251 104.822 281.36 104.984 281.487C105.278 281.706 105.572 281.976 105.719 282.086C105.967 282.27 106.732 283.167 106.98 283.167C107.903 284.11 108.647 285.341 108.83 286.727C109.002 287.986 108.703 289.262 108.267 290.436Z" fill="white"/>
<path d="M104.518 281.199C104.381 281.251 104.224 281.354 104.057 281.481C104.122 281.297 104.224 281.182 104.361 281.17C104.406 281.165 104.462 281.176 104.518 281.199Z" fill="white"/>
</g>
<path opacity="0.1" d="M104.984 281.486C104.822 281.36 104.655 281.25 104.518 281.198C104.574 281.175 104.629 281.164 104.674 281.17C104.812 281.182 104.913 281.297 104.984 281.486Z" fill="white"/>
<path d="M256.478 209.346H278.406C279.12 209.346 279.441 208.768 279.123 208.054L273.621 195.682C273.303 194.968 272.467 194.39 271.753 194.39H249.825C249.111 194.39 248.79 194.968 249.107 195.682L254.61 208.054C254.927 208.768 255.764 209.346 256.478 209.346Z" fill="#01579B"/>
<path opacity="0.2" d="M256.478 209.346H278.406C279.12 209.346 279.441 208.768 279.123 208.054L273.621 195.682C273.303 194.968 272.467 194.39 271.753 194.39H249.825C249.111 194.39 248.79 194.968 249.107 195.682L254.61 208.054C254.927 208.768 255.764 209.346 256.478 209.346Z" fill="black"/>
<path d="M248.878 194.391H249.826C249.112 194.391 248.79 194.969 249.108 195.683L254.61 208.055C254.928 208.769 255.764 209.347 256.478 209.347H255.531C254.817 209.347 253.981 208.769 253.663 208.055L248.161 195.683C247.842 194.969 248.164 194.391 248.878 194.391Z" fill="#01579B"/>
<path opacity="0.4" d="M248.878 194.391H249.826C249.112 194.391 248.79 194.969 249.108 195.683L254.61 208.055C254.928 208.769 255.764 209.347 256.478 209.347H255.531C254.817 209.347 253.981 208.769 253.663 208.055L248.161 195.683C247.842 194.969 248.164 194.391 248.878 194.391Z" fill="black"/>
<path d="M256.884 207.924H276.734L271.346 195.813H251.498L256.884 207.924Z" fill="#263238"/>
<path opacity="0.8" d="M256.884 207.924H276.734L271.346 195.813H251.498L256.884 207.924Z" fill="white"/>
<path d="M247.882 311.52L246.538 317.849L239.662 316.947L240.662 309.922L247.882 311.52Z" fill="#FAB27B"/>
<path d="M236.168 316.945C235.271 316.857 234.361 316.602 234.102 316.187C233.97 315.946 234.005 315.65 234.188 315.446C234.328 315.259 234.535 315.135 234.766 315.098C236.002 314.886 238.377 316.57 238.482 316.644C238.541 316.686 238.566 316.761 238.547 316.83C238.526 316.899 238.466 316.949 238.395 316.957C237.654 317.018 236.909 317.014 236.168 316.945ZM235.159 315.429C235.049 315.416 234.938 315.419 234.829 315.439C234.684 315.45 234.552 315.526 234.47 315.646C234.322 315.846 234.357 315.953 234.4 316.016C234.688 316.518 236.506 316.708 237.865 316.674C237.049 316.091 236.131 315.669 235.159 315.429Z" fill="#01579B"/>
<path d="M238.368 316.951C238.344 316.956 238.318 316.951 238.298 316.938C237.473 316.47 235.894 314.737 236.126 313.941C236.163 313.746 236.334 313.523 236.809 313.522C237.156 313.52 237.489 313.659 237.731 313.908C238.575 314.753 238.577 316.717 238.578 316.809C238.576 316.871 238.541 316.927 238.486 316.956C238.447 316.969 238.406 316.967 238.368 316.951ZM236.891 313.858L236.794 313.839C236.485 313.835 236.452 313.957 236.435 313.999C236.343 314.484 237.359 315.818 238.202 316.435C238.196 315.609 237.938 314.805 237.461 314.13C237.31 313.974 237.107 313.877 236.891 313.858Z" fill="#01579B"/>
<path d="M239.23 316.019L247.102 316.792C247.398 316.821 247.635 317.052 247.672 317.348L248.466 323.892C248.541 324.472 248.131 325.003 247.552 325.078C247.478 325.087 247.402 325.089 247.328 325.083C244.495 324.755 241.987 324.351 238.454 324.01C234.284 323.602 235.293 324.204 230.385 323.794C227.427 323.543 227.216 320.133 228.485 320.091C234.287 319.931 235.052 318.259 237.464 316.425C237.983 316.077 238.611 315.933 239.23 316.019Z" fill="#263238"/>
<path opacity="0.2" d="M240.136 313.614L247.318 314.178L247.882 311.52L240.662 309.922L240.136 313.614Z" fill="black"/>
<path d="M245.963 259.141L239.179 308.986L249.72 309.814L261.994 260.398L245.963 259.141Z" fill="#263238"/>
<path opacity="0.3" d="M245.963 259.141L239.179 308.986L249.72 309.814L261.994 260.398L245.963 259.141Z" fill="black"/>
<path d="M250.685 309.083L237.987 308.077C237.987 308.077 236.886 309.73 238.088 311.215L250.354 312.319C250.354 312.319 251.565 311.62 250.685 309.083Z" fill="#01579B"/>
<path d="M258.084 209.883L255.502 203.644C255.282 203.303 254.955 203.043 254.574 202.904L253.279 202.431C253.001 202.328 252.75 202.162 252.548 201.944L251.951 201.301C251.41 200.716 250.558 200.538 249.827 200.857L249.27 201.1C248.705 201.347 248.29 201.853 248.178 202.459C247.84 204.299 247.578 208.32 250.9 211.028L254.622 212.558L258.084 209.883Z" fill="#FAB27B"/>
<path d="M254.623 212.556L259.566 219.993L263.033 216.329L258.084 209.883L254.623 212.556Z" fill="#FAB27B"/>
<path d="M284.547 194.865C284.292 194.358 280.318 195.839 275.67 198.174C271.022 200.509 267.46 202.813 267.715 203.32C267.97 203.827 271.945 202.347 276.593 200.011C281.241 197.676 284.802 195.372 284.547 194.865Z" fill="#263238"/>
<path d="M278.607 196.77C279.04 196.574 279.459 196.388 279.861 196.217L280.665 197.817C280.288 198.036 279.889 198.263 279.473 198.492L278.607 196.77Z" fill="#01579B"/>
<path opacity="0.5" d="M278.607 196.77C279.04 196.574 279.459 196.388 279.861 196.217L280.665 197.817C280.288 198.036 279.889 198.263 279.473 198.492L278.607 196.77Z" fill="white"/>
<path d="M283.123 194.711C283.344 193.657 279.15 195.523 278.909 195.642C278.617 195.785 278.419 195.32 278.71 195.177C279.006 195.032 284.079 192.601 283.625 194.774C283.558 195.091 283.057 195.031 283.123 194.711Z" fill="#01579B"/>
<g opacity="0.2">
<path d="M283.123 194.711C283.344 193.657 279.15 195.523 278.909 195.642C278.617 195.785 278.419 195.32 278.71 195.177C279.006 195.032 284.079 192.601 283.625 194.774C283.558 195.091 283.057 195.031 283.123 194.711Z" fill="black"/>
</g>
<path d="M283.344 211.627L279.246 204.667C279.246 204.667 279.43 201.591 277.295 197.918C277.146 197.661 275.758 196.54 275.758 196.54C274.15 197.355 273.048 198.163 272.559 198.537C271.074 199.675 270.678 200.505 272.498 203.278C274.014 205.585 275.804 206.871 275.804 206.871L279.674 214.762L283.344 211.627Z" fill="#FAB27B"/>
<path d="M284.264 210.787L282.488 207.97C282.488 207.97 279.219 208.446 277.067 212.167L278.568 215.417L284.264 210.787Z" fill="#01579B"/>
<path d="M304.825 195.239C301.725 195.451 299.028 194.905 293.738 211.582C292.753 214.685 290.219 217.774 290.219 217.774L284.394 209.819C284.394 209.819 280.574 210.043 277.937 214.705C277.937 214.705 282.428 229.77 290.862 228.679C299.297 227.588 303.998 217.909 305.859 212.132C307.721 206.355 311.684 194.772 304.825 195.239Z" fill="#263238"/>
<path d="M289.793 187.635L289.217 192.786L297.882 192.828L298.07 186.311L289.793 187.635Z" fill="#FAB27B"/>
<path opacity="0.2" d="M289.583 190.123C291.766 189.545 293.224 186.967 293.224 186.967L291.385 187.326L289.793 187.635L289.583 190.123Z" fill="black"/>
<path d="M287.426 173.146C287.261 173.554 287.344 173.97 287.618 174.077C287.893 174.182 288.274 173.926 288.423 173.525C288.572 173.123 288.505 172.7 288.228 172.598C287.95 172.495 287.594 172.739 287.426 173.146Z" fill="#263238"/>
<path d="M288.495 174.24L285.177 176.652C285.177 176.652 285.956 177.832 287.677 177.864L288.495 174.24Z" fill="#ED893E"/>
<path d="M289.014 170.669C289.093 170.677 289.161 170.722 289.199 170.79C289.454 171.313 289.952 171.678 290.537 171.772C290.665 171.783 290.757 171.893 290.746 172.019C290.731 172.146 290.616 172.239 290.487 172.23C289.744 172.127 289.105 171.671 288.78 171.01C288.72 170.898 288.765 170.758 288.881 170.697L288.881 170.696C288.922 170.675 288.969 170.666 289.014 170.669Z" fill="#263238"/>
<path d="M303.993 177.891C302.049 183.418 301.347 185.803 297.619 187.906C292.338 189.647 285.463 187.532 285.677 181.545C285.866 176.158 289.006 168.043 295.298 167.294C299.783 166.761 303.862 169.875 304.408 174.248C304.561 175.477 304.419 176.724 303.993 177.891Z" fill="#FAB27B"/>
<path d="M306.739 182.412C305.301 183.587 303.986 184.895 302.713 186.248C301.938 187.07 301.014 187.752 299.994 188.235C297.952 189.202 295.53 189.18 293.375 188.503C293.375 188.503 287.612 183.41 291.458 173.946C289.986 172.9 289.086 171.096 289.134 169.29C289.183 167.485 290.179 165.732 291.706 164.766C293.524 163.616 296.336 164.344 298.014 165.691C300.274 165.15 302.676 165.98 304.378 167.565C306.078 169.15 307.142 171.302 307.917 173.494C308.578 175.368 309.059 177.388 308.656 179.334C308.415 180.493 307.698 181.629 306.739 182.412Z" fill="#263238"/>
<path d="M292.007 175.97C290.906 176.492 290.065 177.421 289.668 178.55C289.153 180.053 290.513 180.896 292.008 180.557C293.362 180.25 295.246 179.096 295.112 177.547C294.977 175.998 293.36 175.346 292.007 175.97Z" fill="#FAB27B"/>
<path d="M299.787 189.407C297.865 188.575 294.402 188.495 289.391 189.274C288.835 189.36 288.401 189.897 288.205 190.425C288.009 190.953 288.283 191.678 288.841 191.749C288.797 192.483 288.616 193.283 288.573 194.018C289.984 193.871 291.539 194.184 292.956 194.256C295.219 194.371 297.459 194.763 299.691 195.156C299.553 194.095 299.227 192.97 299.473 191.93C299.99 192.024 300.505 191.527 300.641 191.02C300.777 190.511 300.269 189.616 299.787 189.407Z" fill="#01579B"/>
<path d="M299.787 189.407C297.865 188.575 294.402 188.495 289.391 189.274C288.835 189.36 288.401 189.897 288.205 190.425C288.009 190.953 288.283 191.678 288.841 191.749C288.797 192.483 288.616 193.283 288.573 194.018C289.984 193.871 291.539 194.184 292.956 194.256C295.219 194.371 297.459 194.763 299.691 195.156C299.553 194.095 299.227 192.97 299.473 191.93C299.99 192.024 300.505 191.527 300.641 191.02C300.777 190.511 300.269 189.616 299.787 189.407Z" fill="#01579B"/>
<path d="M276.131 244.29C276.131 244.29 274.349 220.524 274.461 203.381C274.543 190.735 283.616 193.009 295.297 193.068C304.559 193.115 307.714 193.91 308.977 198.961C310.24 204.012 304.003 244.427 304.003 244.427L276.131 244.29Z" fill="#01579B"/>
<path opacity="0.5" d="M276.131 244.29C276.131 244.29 274.349 220.524 274.461 203.381C274.543 190.735 283.616 193.009 295.297 193.068C304.559 193.115 307.714 193.91 308.977 198.961C310.24 204.012 304.003 244.427 304.003 244.427L276.131 244.29Z" fill="black"/>
<path d="M259.007 210.741C258.35 210.772 257.578 210.973 256.866 211.568C256.202 212.125 255.081 213.191 254.664 214.52C253.892 213.227 252.831 212.131 251.566 211.315L251.497 211.271C251.906 205.651 256.51 206.081 256.51 206.081L256.626 206.366C257.269 207.905 258.065 209.373 259.007 210.741Z" fill="#01579B"/>
<path opacity="0.2" d="M259.007 210.741C258.35 210.772 257.578 210.973 256.866 211.568C256.202 212.125 255.081 213.191 254.664 214.52C253.892 213.227 252.831 212.131 251.566 211.315L251.497 211.271C251.906 205.651 256.51 206.081 256.51 206.081L256.626 206.366C257.269 207.905 258.065 209.373 259.007 210.741Z" fill="black"/>
<path d="M271.281 230.712C262.779 230.527 254.625 216.468 254.625 216.468C254.425 215.78 254.471 215.123 254.664 214.52C255.081 213.191 256.202 212.124 256.866 211.568C257.577 210.973 258.35 210.772 259.007 210.741C259.896 210.695 260.561 210.958 260.561 210.958C260.561 210.958 266.829 218.694 268.359 217.999C269.874 217.303 270.476 214.739 271.033 211.53C274.013 194.391 277.29 193.875 280.164 193.799C286.129 193.643 278.808 230.875 271.281 230.712Z" fill="#01579B"/>
<g opacity="0.1">
<path d="M271.281 230.712C262.779 230.527 254.625 216.468 254.625 216.468C254.425 215.78 254.471 215.123 254.664 214.52C255.081 213.191 256.202 212.124 256.866 211.568C257.577 210.973 258.35 210.772 259.007 210.741C259.896 210.695 260.561 210.958 260.561 210.958C260.561 210.958 266.829 218.694 268.359 217.999C269.874 217.303 270.476 214.739 271.033 211.53C274.013 194.391 277.29 193.875 280.164 193.799C286.129 193.643 278.808 230.875 271.281 230.712Z" fill="white"/>
</g>
<path d="M304.003 244.427C304.003 244.427 304.73 251.662 304.628 254.206C304.085 267.705 291.302 272.468 281.11 270.597L244.9 266.673C243.435 271.578 226.375 298.582 226.375 298.582L217.406 293.433C217.406 293.433 226.705 271.138 232.707 255.626C236.134 246.769 263.338 246.502 273.61 248.324C276.733 249.166 276.13 244.29 276.13 244.29L304.003 244.427Z" fill="#263238"/>
<path d="M224.086 299.082L220.662 304.792L214.272 301.614L217.595 295.113L224.086 299.082Z" fill="#FAB27B"/>
<path d="M210.874 300.442C210.03 300.057 209.23 299.504 209.116 299.013C209.068 298.735 209.202 298.457 209.448 298.321C209.646 298.186 209.89 298.134 210.126 298.176C211.4 298.382 213.147 300.815 213.225 300.923C213.268 300.984 213.269 301.065 213.226 301.126C213.182 301.186 213.108 301.214 213.035 301.198C212.294 301.009 211.571 300.757 210.874 300.442ZM210.398 298.629C210.295 298.58 210.186 298.546 210.073 298.529C209.928 298.49 209.774 298.52 209.655 298.609C209.445 298.754 209.442 298.87 209.463 298.945C209.576 299.531 211.281 300.324 212.614 300.745C212.016 299.906 211.264 299.189 210.398 298.629Z" fill="#01579B"/>
<path d="M213.012 301.185C212.986 301.181 212.964 301.168 212.948 301.148C212.302 300.417 211.345 298.202 211.838 297.505C211.939 297.329 212.179 297.169 212.642 297.326C212.981 297.44 213.258 297.686 213.411 298.009C213.95 299.114 213.294 301.026 213.265 301.115C213.242 301.175 213.19 301.218 213.126 301.227C213.083 301.228 213.042 301.213 213.012 301.185ZM212.61 297.68L212.522 297.629C212.222 297.522 212.15 297.629 212.118 297.665C211.866 298.106 212.409 299.745 213.022 300.626C213.293 299.821 213.31 298.951 213.072 298.136C212.978 297.934 212.814 297.771 212.61 297.68Z" fill="#01579B"/>
<path d="M214.162 300.565L221.564 303.951C221.843 304.078 221.996 304.382 221.933 304.682L220.517 311.316C220.395 311.905 219.819 312.285 219.23 312.163C219.154 312.147 219.081 312.124 219.01 312.093C216.363 310.826 214.058 309.594 210.734 308.08C206.813 306.288 207.593 307.212 202.954 305.169C200.161 303.936 201.096 300.547 202.345 300.93C208.044 302.717 209.348 301.345 212.309 300.368C212.93 300.205 213.59 300.275 214.162 300.565Z" fill="#263238"/>
<path opacity="0.2" d="M222.346 301.983L224.086 299.082L217.595 295.113L215.99 298.254L222.346 301.983Z" fill="black"/>
<path d="M227.798 299.051L216.678 292.114C216.678 292.114 214.888 293.101 215.282 295.027L225.962 301.85C225.962 301.85 227.399 301.785 227.798 299.051Z" fill="#01579B"/>
<path d="M290.68 272.688H309.118C316.226 272.688 322.14 267.224 322.702 260.138L325.325 227.015C325.75 221.646 321.508 217.055 316.122 217.055H305.938C294.05 217.055 283.573 224.86 280.17 236.25L273.106 259.901C271.922 263.866 268.274 266.582 264.137 266.582H251.25C247.878 266.582 245.143 269.316 245.143 272.689H279.818H290.68V272.688Z" fill="#01579B"/>
<path d="M282.386 272.688C282.89 280.569 284.25 309.276 282.219 315.594C280.432 321.154 272.261 322.479 267.434 325.428C266.623 325.924 266.901 327.495 267.798 327.495H305.405C306.302 327.495 306.58 325.924 305.769 325.428C300.942 322.48 292.771 321.155 290.984 315.594C288.953 309.276 290.312 280.568 290.818 272.688H282.386Z" fill="#01579B"/>
<path opacity="0.2" d="M282.733 278.645H290.47C290.598 276.23 290.722 274.168 290.818 272.688H282.386C282.481 274.168 282.606 276.23 282.733 278.645Z" fill="black"/>
<path opacity="0.7" d="M290.68 272.688H309.118C316.226 272.688 322.14 267.224 322.702 260.138L325.325 227.015C325.75 221.646 321.508 217.055 316.122 217.055H305.938C294.05 217.055 283.573 224.86 280.17 236.25L273.106 259.901C271.922 263.866 268.274 266.582 264.137 266.582H251.25C247.878 266.582 245.143 269.316 245.143 272.689H279.818H290.68V272.688Z" fill="white"/>
</svg>
